  0
SECTION
  2
HEADER
  9
$ANGBASE
  50
0.0
  9
$ANGDIR
  70
1
  9
$MEASUREMENT
  70
0
  0
ENDSEC
  0
SECTION
  2
TABLES
  0
TABLE
  2
LTYPE
  70
4
  0
LTYPE
  5
40F
  2
CONTINUOUS
  70
0
  3
Solid line
  72
65
  73
0
  40
0.0
  0
LTYPE
  5
410
  2
DASHDOT
 70
0
  3
Dash Dot ____ _ ____ _
 72
65
 73
4
 40
2.0
 49
1.25
 49
-0.25
 49
0.25
 49
-0.25
  0
LTYPE
  5
411
  2
DASHED
 70
0
  3
Dashed __ __ __ __ __
 72
65
 73
2
 40
0.75
 49
0.5
 49
-0.25
  0
LTYPE
  5
43B
  2
DOTTED
 70
0
  3
Dotted .  .  .  .
 72
65
 73
2
 40
0.2
 49
0.0
 49
-0.2
  0
ENDTAB
  0
TABLE
  2
STYLE
  70
4
  0
STYLE
  2
KICAD
  70
0
  40
0
  41
1
  42
1
  50
0
  71
0
  3
isocp.shx
  0
STYLE
  2
KICADB
  70
0
  40
0
  41
1
  42
1
  50
0
  71
0
  3
isocp.shx
  0
STYLE
  2
KICADI
  70
0
  40
0
  41
1
  42
1
  50
15
  71
0
  3
isocp.shx
  0
STYLE
  2
KICADBI
  70
0
  40
0
  41
1
  42
1
  50
15
  71
0
  3
isocp.shx
  0
ENDTAB
  0
TABLE
  2
LAYER
  70
1
  0
LAYER
  2
BLACK
  70
0
  62
7
  6
CONTINUOUS
  0
ENDTAB
  0
ENDSEC
  0
SECTION
  2
ENTITIES
0
LINE
8
BLACK
6
CONTINUOUS
10
1.8211
20
1.57758
11
1.82264
21
1.57628
0
LINE
8
BLACK
6
CONTINUOUS
10
1.82264
20
1.57628
11
1.823
21
1.57429
0
LINE
8
BLACK
6
CONTINUOUS
10
1.823
20
1.57429
11
1.82199
21
1.57254
0
LINE
8
BLACK
6
CONTINUOUS
10
1.82199
20
1.57254
11
1.82009
21
1.57185
0
LINE
8
BLACK
6
CONTINUOUS
10
1.82009
20
1.57185
11
1.80187
21
1.57185
0
LINE
8
BLACK
6
CONTINUOUS
10
1.80187
20
1.57185
11
1.82271
21
1.53182
0
LINE
8
BLACK
6
CONTINUOUS
10
1.82271
20
1.53182
11
1.82301
21
1.53084
0
LINE
8
BLACK
6
CONTINUOUS
10
1.82301
20
1.53084
11
1.82258
21
1.52887
0
LINE
8
BLACK
6
CONTINUOUS
10
1.82258
20
1.52887
11
1.82098
21
1.52764
0
LINE
8
BLACK
6
CONTINUOUS
10
1.82098
20
1.52764
11
1.81896
21
1.52772
0
LINE
8
BLACK
6
CONTINUOUS
10
1.81896
20
1.52772
11
1.81747
21
1.52909
0
LINE
8
BLACK
6
CONTINUOUS
10
1.81747
20
1.52909
11
1.79995
21
1.56274
0
LINE
8
BLACK
6
CONTINUOUS
10
1.79995
20
1.56274
11
1.79995
21
-1.56274
0
LINE
8
BLACK
6
CONTINUOUS
10
1.79995
20
-1.56274
11
1.81747
21
-1.52909
0
LINE
8
BLACK
6
CONTINUOUS
10
1.81747
20
-1.52909
11
1.81809
21
-1.52828
0
LINE
8
BLACK
6
CONTINUOUS
10
1.81809
20
-1.52828
11
1.81996
21
-1.5275
0
LINE
8
BLACK
6
CONTINUOUS
10
1.81996
20
-1.5275
11
1.82188
21
-1.52811
0
LINE
8
BLACK
6
CONTINUOUS
10
1.82188
20
-1.52811
11
1.82297
21
-1.52981
0
LINE
8
BLACK
6
CONTINUOUS
10
1.82297
20
-1.52981
11
1.82271
21
-1.53182
0
LINE
8
BLACK
6
CONTINUOUS
10
1.82271
20
-1.53182
11
1.80187
21
-1.57185
0
LINE
8
BLACK
6
CONTINUOUS
10
1.80187
20
-1.57185
11
1.82009
21
-1.57185
0
LINE
8
BLACK
6
CONTINUOUS
10
1.82009
20
-1.57185
11
1.8211
21
-1.57203
0
LINE
8
BLACK
6
CONTINUOUS
10
1.8211
20
-1.57203
11
1.82264
21
-1.57333
0
LINE
8
BLACK
6
CONTINUOUS
10
1.82264
20
-1.57333
11
1.823
21
-1.57532
0
LINE
8
BLACK
6
CONTINUOUS
10
1.823
20
-1.57532
11
1.82199
21
-1.57707
0
LINE
8
BLACK
6
CONTINUOUS
10
1.82199
20
-1.57707
11
1.82009
21
-1.57776
0
LINE
8
BLACK
6
CONTINUOUS
10
1.82009
20
-1.57776
11
0.019685
21
-1.57776
0
LINE
8
BLACK
6
CONTINUOUS
10
0.019685
20
-1.57776
11
0.0186751
21
-1.57758
0
LINE
8
BLACK
6
CONTINUOUS
10
0.0186751
20
-1.57758
11
0.0171279
21
-1.57628
0
LINE
8
BLACK
6
CONTINUOUS
10
0.0171279
20
-1.57628
11
0.0167771
21
-1.57429
0
LINE
8
BLACK
6
CONTINUOUS
10
0.0167771
20
-1.57429
11
0.017787
21
-1.57254
0
LINE
8
BLACK
6
CONTINUOUS
10
0.017787
20
-1.57254
11
0.019685
21
-1.57185
0
LINE
8
BLACK
6
CONTINUOUS
10
0.019685
20
-1.57185
11
1.79213
21
-1.57185
0
LINE
8
BLACK
6
CONTINUOUS
10
1.79213
20
-1.57185
11
1.77129
21
-1.53182
0
LINE
8
BLACK
6
CONTINUOUS
10
1.77129
20
-1.53182
11
1.77099
21
-1.53084
0
LINE
8
BLACK
6
CONTINUOUS
10
1.77099
20
-1.53084
11
1.77142
21
-1.52887
0
LINE
8
BLACK
6
CONTINUOUS
10
1.77142
20
-1.52887
11
1.77302
21
-1.52764
0
LINE
8
BLACK
6
CONTINUOUS
10
1.77302
20
-1.52764
11
1.77504
21
-1.52772
0
LINE
8
BLACK
6
CONTINUOUS
10
1.77504
20
-1.52772
11
1.77653
21
-1.52909
0
LINE
8
BLACK
6
CONTINUOUS
10
1.77653
20
-1.52909
11
1.79405
21
-1.56274
0
LINE
8
BLACK
6
CONTINUOUS
10
1.79405
20
-1.56274
11
1.79405
21
1.56274
0
LINE
8
BLACK
6
CONTINUOUS
10
1.79405
20
1.56274
11
1.77653
21
1.52909
0
LINE
8
BLACK
6
CONTINUOUS
10
1.77653
20
1.52909
11
1.77591
21
1.52828
0
LINE
8
BLACK
6
CONTINUOUS
10
1.77591
20
1.52828
11
1.77404
21
1.5275
0
LINE
8
BLACK
6
CONTINUOUS
10
1.77404
20
1.5275
11
1.77211
21
1.52811
0
LINE
8
BLACK
6
CONTINUOUS
10
1.77211
20
1.52811
11
1.77103
21
1.52981
0
LINE
8
BLACK
6
CONTINUOUS
10
1.77103
20
1.52981
11
1.77129
21
1.53182
0
LINE
8
BLACK
6
CONTINUOUS
10
1.77129
20
1.53182
11
1.79213
21
1.57185
0
LINE
8
BLACK
6
CONTINUOUS
10
1.79213
20
1.57185
11
0.019685
21
1.57185
0
LINE
8
BLACK
6
CONTINUOUS
10
0.019685
20
1.57185
11
0.0186751
21
1.57203
0
LINE
8
BLACK
6
CONTINUOUS
10
0.0186751
20
1.57203
11
0.0171279
21
1.57333
0
LINE
8
BLACK
6
CONTINUOUS
10
0.0171279
20
1.57333
11
0.0167771
21
1.57532
0
LINE
8
BLACK
6
CONTINUOUS
10
0.0167771
20
1.57532
11
0.017787
21
1.57707
0
LINE
8
BLACK
6
CONTINUOUS
10
0.017787
20
1.57707
11
0.019685
21
1.57776
0
LINE
8
BLACK
6
CONTINUOUS
10
0.019685
20
1.57776
11
1.82009
21
1.57776
0
LINE
8
BLACK
6
CONTINUOUS
10
1.82009
20
1.57776
11
1.8211
21
1.57758
0
LINE
8
BLACK
6
CONTINUOUS
10
-0.0186751
20
0.319704
11
-0.0171279
21
0.318406
0
LINE
8
BLACK
6
CONTINUOUS
10
-0.0171279
20
0.318406
11
-0.0167771
21
0.316416
0
LINE
8
BLACK
6
CONTINUOUS
10
-0.0167771
20
0.316416
11
-0.017787
21
0.314667
0
LINE
8
BLACK
6
CONTINUOUS
10
-0.017787
20
0.314667
11
-0.019685
21
0.313976
0
LINE
8
BLACK
6
CONTINUOUS
10
-0.019685
20
0.313976
11
-1.73813
21
0.313976
0
LINE
8
BLACK
6
CONTINUOUS
10
-1.73813
20
0.313976
11
-1.71729
21
0.273942
0
LINE
8
BLACK
6
CONTINUOUS
10
-1.71729
20
0.273942
11
-1.71699
21
0.272964
0
LINE
8
BLACK
6
CONTINUOUS
10
-1.71699
20
0.272964
11
-1.71742
21
0.270992
0
LINE
8
BLACK
6
CONTINUOUS
10
-1.71742
20
0.270992
11
-1.71902
21
0.269762
0
LINE
8
BLACK
6
CONTINUOUS
10
-1.71902
20
0.269762
11
-1.72104
21
0.269851
0
LINE
8
BLACK
6
CONTINUOUS
10
-1.72104
20
0.269851
11
-1.72253
21
0.271215
0
LINE
8
BLACK
6
CONTINUOUS
10
-1.72253
20
0.271215
11
-1.74005
21
0.304862
0
LINE
8
BLACK
6
CONTINUOUS
10
-1.74005
20
0.304862
11
-1.74005
21
-0.304862
0
LINE
8
BLACK
6
CONTINUOUS
10
-1.74005
20
-0.304862
11
-1.72253
21
-0.271215
0
LINE
8
BLACK
6
CONTINUOUS
10
-1.72253
20
-0.271215
11
-1.72191
21
-0.270402
0
LINE
8
BLACK
6
CONTINUOUS
10
-1.72191
20
-0.270402
11
-1.72004
21
-0.269629
0
LINE
8
BLACK
6
CONTINUOUS
10
-1.72004
20
-0.269629
11
-1.71812
21
-0.270236
0
LINE
8
BLACK
6
CONTINUOUS
10
-1.71812
20
-0.270236
11
-1.71703
21
-0.271939
0
LINE
8
BLACK
6
CONTINUOUS
10
-1.71703
20
-0.271939
11
-1.71729
21
-0.273942
0
LINE
8
BLACK
6
CONTINUOUS
10
-1.71729
20
-0.273942
11
-1.73813
21
-0.313976
0
LINE
8
BLACK
6
CONTINUOUS
10
-1.73813
20
-0.313976
11
-0.019685
21
-0.313976
0
LINE
8
BLACK
6
CONTINUOUS
10
-0.019685
20
-0.313976
11
-0.0186751
21
-0.314154
0
LINE
8
BLACK
6
CONTINUOUS
10
-0.0186751
20
-0.314154
11
-0.0171279
21
-0.315453
0
LINE
8
BLACK
6
CONTINUOUS
10
-0.0171279
20
-0.315453
11
-0.0167771
21
-0.317442
0
LINE
8
BLACK
6
CONTINUOUS
10
-0.0167771
20
-0.317442
11
-0.017787
21
-0.319191
0
LINE
8
BLACK
6
CONTINUOUS
10
-0.017787
20
-0.319191
11
-0.019685
21
-0.319882
0
LINE
8
BLACK
6
CONTINUOUS
10
-0.019685
20
-0.319882
11
-1.76609
21
-0.319882
0
LINE
8
BLACK
6
CONTINUOUS
10
-1.76609
20
-0.319882
11
-1.7671
21
-0.319704
0
LINE
8
BLACK
6
CONTINUOUS
10
-1.7671
20
-0.319704
11
-1.76864
21
-0.318405
0
LINE
8
BLACK
6
CONTINUOUS
10
-1.76864
20
-0.318405
11
-1.769
21
-0.316416
0
LINE
8
BLACK
6
CONTINUOUS
10
-1.769
20
-0.316416
11
-1.76799
21
-0.314667
0
LINE
8
BLACK
6
CONTINUOUS
10
-1.76799
20
-0.314667
11
-1.76609
21
-0.313976
0
LINE
8
BLACK
6
CONTINUOUS
10
-1.76609
20
-0.313976
11
-1.74787
21
-0.313976
0
LINE
8
BLACK
6
CONTINUOUS
10
-1.74787
20
-0.313976
11
-1.76871
21
-0.273942
0
LINE
8
BLACK
6
CONTINUOUS
10
-1.76871
20
-0.273942
11
-1.76901
21
-0.272964
0
LINE
8
BLACK
6
CONTINUOUS
10
-1.76901
20
-0.272964
11
-1.76858
21
-0.270992
0
LINE
8
BLACK
6
CONTINUOUS
10
-1.76858
20
-0.270992
11
-1.76698
21
-0.269762
0
LINE
8
BLACK
6
CONTINUOUS
10
-1.76698
20
-0.269762
11
-1.76496
21
-0.269851
0
LINE
8
BLACK
6
CONTINUOUS
10
-1.76496
20
-0.269851
11
-1.76347
21
-0.271215
0
LINE
8
BLACK
6
CONTINUOUS
10
-1.76347
20
-0.271215
11
-1.74595
21
-0.304862
0
LINE
8
BLACK
6
CONTINUOUS
10
-1.74595
20
-0.304862
11
-1.74595
21
0.304862
0
LINE
8
BLACK
6
CONTINUOUS
10
-1.74595
20
0.304862
11
-1.76347
21
0.271215
0
LINE
8
BLACK
6
CONTINUOUS
10
-1.76347
20
0.271215
11
-1.76409
21
0.270402
0
LINE
8
BLACK
6
CONTINUOUS
10
-1.76409
20
0.270402
11
-1.76596
21
0.269629
0
LINE
8
BLACK
6
CONTINUOUS
10
-1.76596
20
0.269629
11
-1.76788
21
0.270236
0
LINE
8
BLACK
6
CONTINUOUS
10
-1.76788
20
0.270236
11
-1.76897
21
0.271939
0
LINE
8
BLACK
6
CONTINUOUS
10
-1.76897
20
0.271939
11
-1.76871
21
0.273942
0
LINE
8
BLACK
6
CONTINUOUS
10
-1.76871
20
0.273942
11
-1.74787
21
0.313976
0
LINE
8
BLACK
6
CONTINUOUS
10
-1.74787
20
0.313976
11
-1.76609
21
0.313976
0
LINE
8
BLACK
6
CONTINUOUS
10
-1.76609
20
0.313976
11
-1.7671
21
0.314154
0
LINE
8
BLACK
6
CONTINUOUS
10
-1.7671
20
0.314154
11
-1.76864
21
0.315453
0
LINE
8
BLACK
6
CONTINUOUS
10
-1.76864
20
0.315453
11
-1.769
21
0.317442
0
LINE
8
BLACK
6
CONTINUOUS
10
-1.769
20
0.317442
11
-1.76799
21
0.319191
0
LINE
8
BLACK
6
CONTINUOUS
10
-1.76799
20
0.319191
11
-1.76609
21
0.319882
0
LINE
8
BLACK
6
CONTINUOUS
10
-1.76609
20
0.319882
11
-0.019685
21
0.319882
0
LINE
8
BLACK
6
CONTINUOUS
10
-0.019685
20
0.319882
11
-0.0186751
21
0.319704
0
LINE
8
BLACK
6
CONTINUOUS
10
-1.76811
20
-0.101214
11
-1.76742
21
-0.103112
0
LINE
8
BLACK
6
CONTINUOUS
10
-1.76742
20
-0.103112
11
-1.76742
21
-0.125609
0
LINE
8
BLACK
6
CONTINUOUS
10
-1.76742
20
-0.125609
11
-1.76759
21
-0.126619
0
LINE
8
BLACK
6
CONTINUOUS
10
-1.76759
20
-0.126619
11
-1.76889
21
-0.128166
0
LINE
8
BLACK
6
CONTINUOUS
10
-1.76889
20
-0.128166
11
-1.77088
21
-0.128517
0
LINE
8
BLACK
6
CONTINUOUS
10
-1.77088
20
-0.128517
11
-1.77263
21
-0.127507
0
LINE
8
BLACK
6
CONTINUOUS
10
-1.77263
20
-0.127507
11
-1.77332
21
-0.125609
0
LINE
8
BLACK
6
CONTINUOUS
10
-1.77332
20
-0.125609
11
-1.77332
21
-0.117313
0
LINE
8
BLACK
6
CONTINUOUS
10
-1.77332
20
-0.117313
11
-1.80074
21
-0.117313
0
LINE
8
BLACK
6
CONTINUOUS
10
-1.80074
20
-0.117313
11
-1.79828
21
-0.119772
0
LINE
8
BLACK
6
CONTINUOUS
10
-1.79828
20
-0.119772
11
-1.79777
21
-0.120495
0
LINE
8
BLACK
6
CONTINUOUS
10
-1.79777
20
-0.120495
11
-1.79772
21
-0.120539
0
LINE
8
BLACK
6
CONTINUOUS
10
-1.79772
20
-0.120539
11
-1.79585
21
-0.124289
0
LINE
8
BLACK
6
CONTINUOUS
10
-1.79585
20
-0.124289
11
-1.79556
21
-0.125272
0
LINE
8
BLACK
6
CONTINUOUS
10
-1.79556
20
-0.125272
11
-1.79603
21
-0.127236
0
LINE
8
BLACK
6
CONTINUOUS
10
-1.79603
20
-0.127236
11
-1.79765
21
-0.128439
0
LINE
8
BLACK
6
CONTINUOUS
10
-1.79765
20
-0.128439
11
-1.79967
21
-0.128318
0
LINE
8
BLACK
6
CONTINUOUS
10
-1.79967
20
-0.128318
11
-1.80113
21
-0.12693
0
LINE
8
BLACK
6
CONTINUOUS
10
-1.80113
20
-0.12693
11
-1.80279
21
-0.123609
0
LINE
8
BLACK
6
CONTINUOUS
10
-1.80279
20
-0.123609
11
-1.806
21
-0.120405
0
LINE
8
BLACK
6
CONTINUOUS
10
-1.806
20
-0.120405
11
-1.81138
21
-0.116817
0
LINE
8
BLACK
6
CONTINUOUS
10
-1.81138
20
-0.116817
11
-1.81212
21
-0.116109
0
LINE
8
BLACK
6
CONTINUOUS
10
-1.81212
20
-0.116109
11
-1.81217
21
-0.115946
0
LINE
8
BLACK
6
CONTINUOUS
10
-1.81217
20
-0.115946
11
-1.8123
21
-0.115837
0
LINE
8
BLACK
6
CONTINUOUS
10
-1.8123
20
-0.115837
11
-1.81245
21
-0.114993
0
LINE
8
BLACK
6
CONTINUOUS
10
-1.81245
20
-0.114993
11
-1.81269
21
-0.114171
0
LINE
8
BLACK
6
CONTINUOUS
10
-1.81269
20
-0.114171
11
-1.81262
21
-0.114015
0
LINE
8
BLACK
6
CONTINUOUS
10
-1.81262
20
-0.114015
11
-1.81265
21
-0.113848
0
LINE
8
BLACK
6
CONTINUOUS
10
-1.81265
20
-0.113848
11
-1.81222
21
-0.113106
0
LINE
8
BLACK
6
CONTINUOUS
10
-1.81222
20
-0.113106
11
-1.81187
21
-0.112321
0
LINE
8
BLACK
6
CONTINUOUS
10
-1.81187
20
-0.112321
11
-1.81172
21
-0.112246
0
LINE
8
BLACK
6
CONTINUOUS
10
-1.81172
20
-0.112246
11
-1.81164
21
-0.112099
0
LINE
8
BLACK
6
CONTINUOUS
10
-1.81164
20
-0.112099
11
-1.81083
21
-0.111806
0
LINE
8
BLACK
6
CONTINUOUS
10
-1.81083
20
-0.111806
11
-1.81006
21
-0.111426
0
LINE
8
BLACK
6
CONTINUOUS
10
-1.81006
20
-0.111426
11
-1.8099
21
-0.111466
0
LINE
8
BLACK
6
CONTINUOUS
10
-1.8099
20
-0.111466
11
-1.80974
21
-0.111408
0
LINE
8
BLACK
6
CONTINUOUS
10
-1.80974
20
-0.111408
11
-1.77332
21
-0.111408
0
LINE
8
BLACK
6
CONTINUOUS
10
-1.77332
20
-0.111408
11
-1.77332
21
-0.103112
0
LINE
8
BLACK
6
CONTINUOUS
10
-1.77332
20
-0.103112
11
-1.77314
21
-0.102102
0
LINE
8
BLACK
6
CONTINUOUS
10
-1.77314
20
-0.102102
11
-1.77185
21
-0.100555
0
LINE
8
BLACK
6
CONTINUOUS
10
-1.77185
20
-0.100555
11
-1.76986
21
-0.100204
0
LINE
8
BLACK
6
CONTINUOUS
10
-1.76986
20
-0.100204
11
-1.76811
21
-0.101214
0
LINE
8
BLACK
6
CONTINUOUS
10
1.74064
20
-0.0722159
11
1.74078
21
-0.0723294
0
LINE
8
BLACK
6
CONTINUOUS
10
1.74078
20
-0.0723294
11
1.74095
21
-0.0723496
0
LINE
8
BLACK
6
CONTINUOUS
10
1.74095
20
-0.0723496
11
1.7447
21
-0.0742243
0
LINE
8
BLACK
6
CONTINUOUS
10
1.7447
20
-0.0742243
11
1.74541
21
-0.0747502
0
LINE
8
BLACK
6
CONTINUOUS
10
1.74541
20
-0.0747502
11
1.74547
21
-0.0747774
0
LINE
8
BLACK
6
CONTINUOUS
10
1.74547
20
-0.0747774
11
1.74713
21
-0.0764391
0
LINE
8
BLACK
6
CONTINUOUS
10
1.74713
20
-0.0764391
11
1.7488
21
-0.0747774
0
LINE
8
BLACK
6
CONTINUOUS
10
1.7488
20
-0.0747774
11
1.74952
21
-0.0742711
0
LINE
8
BLACK
6
CONTINUOUS
10
1.74952
20
-0.0742711
11
1.74956
21
-0.0742243
0
LINE
8
BLACK
6
CONTINUOUS
10
1.74956
20
-0.0742243
11
1.75331
21
-0.0723496
0
LINE
8
BLACK
6
CONTINUOUS
10
1.75331
20
-0.0723496
11
1.75429
21
-0.0720572
0
LINE
8
BLACK
6
CONTINUOUS
10
1.75429
20
-0.0720572
11
1.75447
21
-0.0720982
0
LINE
8
BLACK
6
CONTINUOUS
10
1.75447
20
-0.0720982
11
1.75463
21
-0.0720378
0
LINE
8
BLACK
6
CONTINUOUS
10
1.75463
20
-0.0720378
11
1.76213
21
-0.0720378
0
LINE
8
BLACK
6
CONTINUOUS
10
1.76213
20
-0.0720378
11
1.76314
21
-0.0722159
0
LINE
8
BLACK
6
CONTINUOUS
10
1.76314
20
-0.0722159
11
1.76328
21
-0.0723294
0
LINE
8
BLACK
6
CONTINUOUS
10
1.76328
20
-0.0723294
11
1.76345
21
-0.0723496
0
LINE
8
BLACK
6
CONTINUOUS
10
1.76345
20
-0.0723496
11
1.7672
21
-0.0742243
0
LINE
8
BLACK
6
CONTINUOUS
10
1.7672
20
-0.0742243
11
1.76791
21
-0.0747502
0
LINE
8
BLACK
6
CONTINUOUS
10
1.76791
20
-0.0747502
11
1.76797
21
-0.0747774
0
LINE
8
BLACK
6
CONTINUOUS
10
1.76797
20
-0.0747774
11
1.76984
21
-0.0766522
0
LINE
8
BLACK
6
CONTINUOUS
10
1.76984
20
-0.0766522
11
1.77035
21
-0.0773753
0
LINE
8
BLACK
6
CONTINUOUS
10
1.77035
20
-0.0773753
11
1.7704
21
-0.0774196
0
LINE
8
BLACK
6
CONTINUOUS
10
1.7704
20
-0.0774196
11
1.77227
21
-0.0811691
0
LINE
8
BLACK
6
CONTINUOUS
10
1.77227
20
-0.0811691
11
1.77256
21
-0.082152
0
LINE
8
BLACK
6
CONTINUOUS
10
1.77256
20
-0.082152
11
1.77252
21
-0.0823237
0
LINE
8
BLACK
6
CONTINUOUS
10
1.77252
20
-0.0823237
11
1.77258
21
-0.0824896
0
LINE
8
BLACK
6
CONTINUOUS
10
1.77258
20
-0.0824896
11
1.77258
21
-0.0899887
0
LINE
8
BLACK
6
CONTINUOUS
10
1.77258
20
-0.0899887
11
1.77241
21
-0.0909986
0
LINE
8
BLACK
6
CONTINUOUS
10
1.77241
20
-0.0909986
11
1.77229
21
-0.0911339
0
LINE
8
BLACK
6
CONTINUOUS
10
1.77229
20
-0.0911339
11
1.77227
21
-0.0913092
0
LINE
8
BLACK
6
CONTINUOUS
10
1.77227
20
-0.0913092
11
1.7704
21
-0.0950587
0
LINE
8
BLACK
6
CONTINUOUS
10
1.7704
20
-0.0950587
11
1.76987
21
-0.0957678
0
LINE
8
BLACK
6
CONTINUOUS
10
1.76987
20
-0.0957678
11
1.76984
21
-0.0958262
0
LINE
8
BLACK
6
CONTINUOUS
10
1.76984
20
-0.0958262
11
1.76797
21
-0.0977009
0
LINE
8
BLACK
6
CONTINUOUS
10
1.76797
20
-0.0977009
11
1.76725
21
-0.0982072
0
LINE
8
BLACK
6
CONTINUOUS
10
1.76725
20
-0.0982072
11
1.7672
21
-0.098254
0
LINE
8
BLACK
6
CONTINUOUS
10
1.7672
20
-0.098254
11
1.76345
21
-0.100129
0
LINE
8
BLACK
6
CONTINUOUS
10
1.76345
20
-0.100129
11
1.76247
21
-0.100421
0
LINE
8
BLACK
6
CONTINUOUS
10
1.76247
20
-0.100421
11
1.7623
21
-0.10038
0
LINE
8
BLACK
6
CONTINUOUS
10
1.7623
20
-0.10038
11
1.76213
21
-0.100441
0
LINE
8
BLACK
6
CONTINUOUS
10
1.76213
20
-0.100441
11
1.75463
21
-0.100441
0
LINE
8
BLACK
6
CONTINUOUS
10
1.75463
20
-0.100441
11
1.75362
21
-0.100262
0
LINE
8
BLACK
6
CONTINUOUS
10
1.75362
20
-0.100262
11
1.75349
21
-0.100149
0
LINE
8
BLACK
6
CONTINUOUS
10
1.75349
20
-0.100149
11
1.75331
21
-0.100129
0
LINE
8
BLACK
6
CONTINUOUS
10
1.75331
20
-0.100129
11
1.74956
21
-0.098254
0
LINE
8
BLACK
6
CONTINUOUS
10
1.74956
20
-0.098254
11
1.74885
21
-0.0977281
0
LINE
8
BLACK
6
CONTINUOUS
10
1.74885
20
-0.0977281
11
1.7488
21
-0.0977009
0
LINE
8
BLACK
6
CONTINUOUS
10
1.7488
20
-0.0977009
11
1.74713
21
-0.0960393
0
LINE
8
BLACK
6
CONTINUOUS
10
1.74713
20
-0.0960393
11
1.74547
21
-0.0977009
0
LINE
8
BLACK
6
CONTINUOUS
10
1.74547
20
-0.0977009
11
1.74475
21
-0.0982072
0
LINE
8
BLACK
6
CONTINUOUS
10
1.74475
20
-0.0982072
11
1.7447
21
-0.098254
0
LINE
8
BLACK
6
CONTINUOUS
10
1.7447
20
-0.098254
11
1.74095
21
-0.100129
0
LINE
8
BLACK
6
CONTINUOUS
10
1.74095
20
-0.100129
11
1.73997
21
-0.100421
0
LINE
8
BLACK
6
CONTINUOUS
10
1.73997
20
-0.100421
11
1.7398
21
-0.10038
0
LINE
8
BLACK
6
CONTINUOUS
10
1.7398
20
-0.10038
11
1.73963
21
-0.100441
0
LINE
8
BLACK
6
CONTINUOUS
10
1.73963
20
-0.100441
11
1.73776
21
-0.100441
0
LINE
8
BLACK
6
CONTINUOUS
10
1.73776
20
-0.100441
11
1.73675
21
-0.100262
0
LINE
8
BLACK
6
CONTINUOUS
10
1.73675
20
-0.100262
11
1.73661
21
-0.100149
0
LINE
8
BLACK
6
CONTINUOUS
10
1.73661
20
-0.100149
11
1.73644
21
-0.100129
0
LINE
8
BLACK
6
CONTINUOUS
10
1.73644
20
-0.100129
11
1.73269
21
-0.098254
0
LINE
8
BLACK
6
CONTINUOUS
10
1.73269
20
-0.098254
11
1.73198
21
-0.0977281
0
LINE
8
BLACK
6
CONTINUOUS
10
1.73198
20
-0.0977281
11
1.73192
21
-0.0977009
0
LINE
8
BLACK
6
CONTINUOUS
10
1.73192
20
-0.0977009
11
1.73005
21
-0.0958261
0
LINE
8
BLACK
6
CONTINUOUS
10
1.73005
20
-0.0958261
11
1.72954
21
-0.095103
0
LINE
8
BLACK
6
CONTINUOUS
10
1.72954
20
-0.095103
11
1.72949
21
-0.0950587
0
LINE
8
BLACK
6
CONTINUOUS
10
1.72949
20
-0.0950587
11
1.72762
21
-0.0913092
0
LINE
8
BLACK
6
CONTINUOUS
10
1.72762
20
-0.0913092
11
1.72733
21
-0.0903263
0
LINE
8
BLACK
6
CONTINUOUS
10
1.72733
20
-0.0903263
11
1.72737
21
-0.0901546
0
LINE
8
BLACK
6
CONTINUOUS
10
1.72737
20
-0.0901546
11
1.72731
21
-0.0899887
0
LINE
8
BLACK
6
CONTINUOUS
10
1.72731
20
-0.0899887
11
1.72731
21
-0.0824896
0
LINE
8
BLACK
6
CONTINUOUS
10
1.72731
20
-0.0824896
11
1.72749
21
-0.0814797
0
LINE
8
BLACK
6
CONTINUOUS
10
1.72749
20
-0.0814797
11
1.7276
21
-0.0813444
0
LINE
8
BLACK
6
CONTINUOUS
10
1.7276
20
-0.0813444
11
1.72762
21
-0.0811691
0
LINE
8
BLACK
6
CONTINUOUS
10
1.72762
20
-0.0811691
11
1.72949
21
-0.0774196
0
LINE
8
BLACK
6
CONTINUOUS
10
1.72949
20
-0.0774196
11
1.73002
21
-0.0767105
0
LINE
8
BLACK
6
CONTINUOUS
10
1.73002
20
-0.0767105
11
1.73005
21
-0.0766522
0
LINE
8
BLACK
6
CONTINUOUS
10
1.73005
20
-0.0766522
11
1.73192
21
-0.0747774
0
LINE
8
BLACK
6
CONTINUOUS
10
1.73192
20
-0.0747774
11
1.73265
21
-0.0742711
0
LINE
8
BLACK
6
CONTINUOUS
10
1.73265
20
-0.0742711
11
1.73269
21
-0.0742243
0
LINE
8
BLACK
6
CONTINUOUS
10
1.73269
20
-0.0742243
11
1.73644
21
-0.0723496
0
LINE
8
BLACK
6
CONTINUOUS
10
1.73644
20
-0.0723496
11
1.73742
21
-0.0720572
0
LINE
8
BLACK
6
CONTINUOUS
10
1.73742
20
-0.0720572
11
1.73759
21
-0.0720982
0
LINE
8
BLACK
6
CONTINUOUS
10
1.73759
20
-0.0720982
11
1.73776
21
-0.0720378
0
LINE
8
BLACK
6
CONTINUOUS
10
1.73776
20
-0.0720378
11
1.73963
21
-0.0720378
0
LINE
8
BLACK
6
CONTINUOUS
10
1.73963
20
-0.0720378
11
1.74064
21
-0.0722159
0
LINE
8
BLACK
6
CONTINUOUS
10
1.73576
20
-0.0792921
11
1.73456
21
-0.0804892
0
LINE
8
BLACK
6
CONTINUOUS
10
1.73456
20
-0.0804892
11
1.73321
21
-0.0831867
0
LINE
8
BLACK
6
CONTINUOUS
10
1.73321
20
-0.0831867
11
1.73321
21
-0.0892917
0
LINE
8
BLACK
6
CONTINUOUS
10
1.73321
20
-0.0892917
11
1.73456
21
-0.0919891
0
LINE
8
BLACK
6
CONTINUOUS
10
1.73456
20
-0.0919891
11
1.73576
21
-0.0931863
0
LINE
8
BLACK
6
CONTINUOUS
10
1.73576
20
-0.0931863
11
1.73846
21
-0.094535
0
LINE
8
BLACK
6
CONTINUOUS
10
1.73846
20
-0.094535
11
1.73894
21
-0.094535
0
LINE
8
BLACK
6
CONTINUOUS
10
1.73894
20
-0.094535
11
1.74163
21
-0.0931863
0
LINE
8
BLACK
6
CONTINUOUS
10
1.74163
20
-0.0931863
11
1.74283
21
-0.0919891
0
LINE
8
BLACK
6
CONTINUOUS
10
1.74283
20
-0.0919891
11
1.74418
21
-0.0892917
0
LINE
8
BLACK
6
CONTINUOUS
10
1.74418
20
-0.0892917
11
1.74418
21
-0.0831867
0
LINE
8
BLACK
6
CONTINUOUS
10
1.74418
20
-0.0831867
11
1.74283
21
-0.0804892
0
LINE
8
BLACK
6
CONTINUOUS
10
1.74283
20
-0.0804892
11
1.74163
21
-0.0792921
0
LINE
8
BLACK
6
CONTINUOUS
10
1.74163
20
-0.0792921
11
1.73894
21
-0.0779433
0
LINE
8
BLACK
6
CONTINUOUS
10
1.73894
20
-0.0779433
11
1.73846
21
-0.0779433
0
LINE
8
BLACK
6
CONTINUOUS
10
1.73846
20
-0.0779433
11
1.73576
21
-0.0792921
0
LINE
8
BLACK
6
CONTINUOUS
10
1.75263
20
-0.0792921
11
1.75143
21
-0.0804892
0
LINE
8
BLACK
6
CONTINUOUS
10
1.75143
20
-0.0804892
11
1.75009
21
-0.0831867
0
LINE
8
BLACK
6
CONTINUOUS
10
1.75009
20
-0.0831867
11
1.75009
21
-0.0892917
0
LINE
8
BLACK
6
CONTINUOUS
10
1.75009
20
-0.0892917
11
1.75143
21
-0.0919891
0
LINE
8
BLACK
6
CONTINUOUS
10
1.75143
20
-0.0919891
11
1.75263
21
-0.0931863
0
LINE
8
BLACK
6
CONTINUOUS
10
1.75263
20
-0.0931863
11
1.75533
21
-0.094535
0
LINE
8
BLACK
6
CONTINUOUS
10
1.75533
20
-0.094535
11
1.76143
21
-0.094535
0
LINE
8
BLACK
6
CONTINUOUS
10
1.76143
20
-0.094535
11
1.76413
21
-0.0931862
0
LINE
8
BLACK
6
CONTINUOUS
10
1.76413
20
-0.0931862
11
1.76533
21
-0.0919891
0
LINE
8
BLACK
6
CONTINUOUS
10
1.76533
20
-0.0919891
11
1.76668
21
-0.0892917
0
LINE
8
BLACK
6
CONTINUOUS
10
1.76668
20
-0.0892917
11
1.76668
21
-0.0831867
0
LINE
8
BLACK
6
CONTINUOUS
10
1.76668
20
-0.0831867
11
1.76533
21
-0.0804892
0
LINE
8
BLACK
6
CONTINUOUS
10
1.76533
20
-0.0804892
11
1.76413
21
-0.0792921
0
LINE
8
BLACK
6
CONTINUOUS
10
1.76413
20
-0.0792921
11
1.76143
21
-0.0779433
0
LINE
8
BLACK
6
CONTINUOUS
10
1.76143
20
-0.0779433
11
1.75533
21
-0.0779433
0
LINE
8
BLACK
6
CONTINUOUS
10
1.75533
20
-0.0779433
11
1.75263
21
-0.0792921
0
LINE
8
BLACK
6
CONTINUOUS
10
-1.77686
20
-0.062842
11
-1.77672
21
-0.0629555
0
LINE
8
BLACK
6
CONTINUOUS
10
-1.77672
20
-0.0629555
11
-1.77655
21
-0.0629757
0
LINE
8
BLACK
6
CONTINUOUS
10
-1.77655
20
-0.0629757
11
-1.7728
21
-0.0648505
0
LINE
8
BLACK
6
CONTINUOUS
10
-1.7728
20
-0.0648505
11
-1.77209
21
-0.0653763
0
LINE
8
BLACK
6
CONTINUOUS
10
-1.77209
20
-0.0653763
11
-1.77203
21
-0.0654035
0
LINE
8
BLACK
6
CONTINUOUS
10
-1.77203
20
-0.0654035
11
-1.77016
21
-0.0672783
0
LINE
8
BLACK
6
CONTINUOUS
10
-1.77016
20
-0.0672783
11
-1.76965
21
-0.0680015
0
LINE
8
BLACK
6
CONTINUOUS
10
-1.76965
20
-0.0680015
11
-1.7696
21
-0.0680457
0
LINE
8
BLACK
6
CONTINUOUS
10
-1.7696
20
-0.0680457
11
-1.76773
21
-0.0717953
0
LINE
8
BLACK
6
CONTINUOUS
10
-1.76773
20
-0.0717953
11
-1.76744
21
-0.0727782
0
LINE
8
BLACK
6
CONTINUOUS
10
-1.76744
20
-0.0727782
11
-1.76748
21
-0.0729499
0
LINE
8
BLACK
6
CONTINUOUS
10
-1.76748
20
-0.0729499
11
-1.76742
21
-0.0731158
0
LINE
8
BLACK
6
CONTINUOUS
10
-1.76742
20
-0.0731158
11
-1.76742
21
-0.0806148
0
LINE
8
BLACK
6
CONTINUOUS
10
-1.76742
20
-0.0806148
11
-1.76759
21
-0.0816248
0
LINE
8
BLACK
6
CONTINUOUS
10
-1.76759
20
-0.0816248
11
-1.76771
21
-0.08176
0
LINE
8
BLACK
6
CONTINUOUS
10
-1.76771
20
-0.08176
11
-1.76773
21
-0.0819354
0
LINE
8
BLACK
6
CONTINUOUS
10
-1.76773
20
-0.0819354
11
-1.7696
21
-0.0856849
0
LINE
8
BLACK
6
CONTINUOUS
10
-1.7696
20
-0.0856849
11
-1.77013
21
-0.086394
0
LINE
8
BLACK
6
CONTINUOUS
10
-1.77013
20
-0.086394
11
-1.77016
21
-0.0864523
0
LINE
8
BLACK
6
CONTINUOUS
10
-1.77016
20
-0.0864523
11
-1.77203
21
-0.0883271
0
LINE
8
BLACK
6
CONTINUOUS
10
-1.77203
20
-0.0883271
11
-1.77275
21
-0.0888333
0
LINE
8
BLACK
6
CONTINUOUS
10
-1.77275
20
-0.0888333
11
-1.7728
21
-0.0888802
0
LINE
8
BLACK
6
CONTINUOUS
10
-1.7728
20
-0.0888802
11
-1.77655
21
-0.0907549
0
LINE
8
BLACK
6
CONTINUOUS
10
-1.77655
20
-0.0907549
11
-1.77753
21
-0.0910473
0
LINE
8
BLACK
6
CONTINUOUS
10
-1.77753
20
-0.0910473
11
-1.7777
21
-0.0910063
0
LINE
8
BLACK
6
CONTINUOUS
10
-1.7777
20
-0.0910063
11
-1.77787
21
-0.0910667
0
LINE
8
BLACK
6
CONTINUOUS
10
-1.77787
20
-0.0910667
11
-1.79287
21
-0.0910667
0
LINE
8
BLACK
6
CONTINUOUS
10
-1.79287
20
-0.0910667
11
-1.79345
21
-0.0909643
0
LINE
8
BLACK
6
CONTINUOUS
10
-1.79345
20
-0.0909643
11
-1.79358
21
-0.0909785
0
LINE
8
BLACK
6
CONTINUOUS
10
-1.79358
20
-0.0909785
11
-1.80108
21
-0.0891037
0
LINE
8
BLACK
6
CONTINUOUS
10
-1.80108
20
-0.0891037
11
-1.80199
21
-0.0887
0
LINE
8
BLACK
6
CONTINUOUS
10
-1.80199
20
-0.0887
11
-1.802
21
-0.088696
0
LINE
8
BLACK
6
CONTINUOUS
10
-1.802
20
-0.088696
11
-1.80763
21
-0.0849465
0
LINE
8
BLACK
6
CONTINUOUS
10
-1.80763
20
-0.0849465
11
-1.80795
21
-0.0846356
0
LINE
8
BLACK
6
CONTINUOUS
10
-1.80795
20
-0.0846356
11
-1.80808
21
-0.0845775
0
LINE
8
BLACK
6
CONTINUOUS
10
-1.80808
20
-0.0845775
11
-1.80995
21
-0.0827028
0
LINE
8
BLACK
6
CONTINUOUS
10
-1.80995
20
-0.0827028
11
-1.81046
21
-0.0819796
0
LINE
8
BLACK
6
CONTINUOUS
10
-1.81046
20
-0.0819796
11
-1.81051
21
-0.0819354
0
LINE
8
BLACK
6
CONTINUOUS
10
-1.81051
20
-0.0819354
11
-1.81238
21
-0.0781858
0
LINE
8
BLACK
6
CONTINUOUS
10
-1.81238
20
-0.0781858
11
-1.81267
21
-0.0772029
0
LINE
8
BLACK
6
CONTINUOUS
10
-1.81267
20
-0.0772029
11
-1.81263
21
-0.0770312
0
LINE
8
BLACK
6
CONTINUOUS
10
-1.81263
20
-0.0770312
11
-1.81269
21
-0.0768653
0
LINE
8
BLACK
6
CONTINUOUS
10
-1.81269
20
-0.0768653
11
-1.81269
21
-0.0693663
0
LINE
8
BLACK
6
CONTINUOUS
10
-1.81269
20
-0.0693663
11
-1.81251
21
-0.0683563
0
LINE
8
BLACK
6
CONTINUOUS
10
-1.81251
20
-0.0683563
11
-1.81122
21
-0.0668091
0
LINE
8
BLACK
6
CONTINUOUS
10
-1.81122
20
-0.0668091
11
-1.80923
21
-0.0664583
0
LINE
8
BLACK
6
CONTINUOUS
10
-1.80923
20
-0.0664583
11
-1.80748
21
-0.0674683
0
LINE
8
BLACK
6
CONTINUOUS
10
-1.80748
20
-0.0674683
11
-1.80679
21
-0.0693663
0
LINE
8
BLACK
6
CONTINUOUS
10
-1.80679
20
-0.0693663
11
-1.80679
21
-0.0761683
0
LINE
8
BLACK
6
CONTINUOUS
10
-1.80679
20
-0.0761683
11
-1.80544
21
-0.0788657
0
LINE
8
BLACK
6
CONTINUOUS
10
-1.80544
20
-0.0788657
11
-1.80411
21
-0.0801949
0
LINE
8
BLACK
6
CONTINUOUS
10
-1.80411
20
-0.0801949
11
-1.79915
21
-0.0834986
0
LINE
8
BLACK
6
CONTINUOUS
10
-1.79915
20
-0.0834986
11
-1.79624
21
-0.0842279
0
LINE
8
BLACK
6
CONTINUOUS
10
-1.79624
20
-0.0842279
11
-1.79738
21
-0.0819354
0
LINE
8
BLACK
6
CONTINUOUS
10
-1.79738
20
-0.0819354
11
-1.79767
21
-0.0809524
0
LINE
8
BLACK
6
CONTINUOUS
10
-1.79767
20
-0.0809524
11
-1.79763
21
-0.0807807
0
LINE
8
BLACK
6
CONTINUOUS
10
-1.79763
20
-0.0807807
11
-1.79769
21
-0.0806148
0
LINE
8
BLACK
6
CONTINUOUS
10
-1.79769
20
-0.0806148
11
-1.79769
21
-0.0731158
0
LINE
8
BLACK
6
CONTINUOUS
10
-1.79769
20
-0.0731158
11
-1.79752
21
-0.0721059
0
LINE
8
BLACK
6
CONTINUOUS
10
-1.79752
20
-0.0721059
11
-1.7974
21
-0.0719706
0
LINE
8
BLACK
6
CONTINUOUS
10
-1.7974
20
-0.0719706
11
-1.79738
21
-0.0717953
0
LINE
8
BLACK
6
CONTINUOUS
10
-1.79738
20
-0.0717953
11
-1.79551
21
-0.0680457
0
LINE
8
BLACK
6
CONTINUOUS
10
-1.79551
20
-0.0680457
11
-1.79498
21
-0.0673367
0
LINE
8
BLACK
6
CONTINUOUS
10
-1.79498
20
-0.0673367
11
-1.79495
21
-0.0672783
0
LINE
8
BLACK
6
CONTINUOUS
10
-1.79495
20
-0.0672783
11
-1.79308
21
-0.0654036
0
LINE
8
BLACK
6
CONTINUOUS
10
-1.79308
20
-0.0654036
11
-1.79236
21
-0.0648973
0
LINE
8
BLACK
6
CONTINUOUS
10
-1.79236
20
-0.0648973
11
-1.79231
21
-0.0648505
0
LINE
8
BLACK
6
CONTINUOUS
10
-1.79231
20
-0.0648505
11
-1.78856
21
-0.0629757
0
LINE
8
BLACK
6
CONTINUOUS
10
-1.78856
20
-0.0629757
11
-1.78758
21
-0.0626833
0
LINE
8
BLACK
6
CONTINUOUS
10
-1.78758
20
-0.0626833
11
-1.78741
21
-0.0627243
0
LINE
8
BLACK
6
CONTINUOUS
10
-1.78741
20
-0.0627243
11
-1.78724
21
-0.062664
0
LINE
8
BLACK
6
CONTINUOUS
10
-1.78724
20
-0.062664
11
-1.77787
21
-0.062664
0
LINE
8
BLACK
6
CONTINUOUS
10
-1.77787
20
-0.062664
11
-1.77686
21
-0.062842
0
LINE
8
BLACK
6
CONTINUOUS
10
-1.78924
20
-0.0699182
11
-1.79044
21
-0.0711154
0
LINE
8
BLACK
6
CONTINUOUS
10
-1.79044
20
-0.0711154
11
-1.79179
21
-0.0738128
0
LINE
8
BLACK
6
CONTINUOUS
10
-1.79179
20
-0.0738128
11
-1.79179
21
-0.0799178
0
LINE
8
BLACK
6
CONTINUOUS
10
-1.79179
20
-0.0799178
11
-1.79044
21
-0.0826153
0
LINE
8
BLACK
6
CONTINUOUS
10
-1.79044
20
-0.0826153
11
-1.78924
21
-0.0838124
0
LINE
8
BLACK
6
CONTINUOUS
10
-1.78924
20
-0.0838124
11
-1.78655
21
-0.0851611
0
LINE
8
BLACK
6
CONTINUOUS
10
-1.78655
20
-0.0851611
11
-1.77857
21
-0.0851611
0
LINE
8
BLACK
6
CONTINUOUS
10
-1.77857
20
-0.0851611
11
-1.77587
21
-0.0838124
0
LINE
8
BLACK
6
CONTINUOUS
10
-1.77587
20
-0.0838124
11
-1.77467
21
-0.0826152
0
LINE
8
BLACK
6
CONTINUOUS
10
-1.77467
20
-0.0826152
11
-1.77332
21
-0.0799178
0
LINE
8
BLACK
6
CONTINUOUS
10
-1.77332
20
-0.0799178
11
-1.77332
21
-0.0738128
0
LINE
8
BLACK
6
CONTINUOUS
10
-1.77332
20
-0.0738128
11
-1.77467
21
-0.0711154
0
LINE
8
BLACK
6
CONTINUOUS
10
-1.77467
20
-0.0711154
11
-1.77587
21
-0.0699182
0
LINE
8
BLACK
6
CONTINUOUS
10
-1.77587
20
-0.0699182
11
-1.77857
21
-0.0685695
0
LINE
8
BLACK
6
CONTINUOUS
10
-1.77857
20
-0.0685695
11
-1.78655
21
-0.0685695
0
LINE
8
BLACK
6
CONTINUOUS
10
-1.78655
20
-0.0685695
11
-1.78924
21
-0.0699182
0
LINE
8
BLACK
6
CONTINUOUS
10
1.75521
20
-0.0346448
11
1.75535
21
-0.0346307
0
LINE
8
BLACK
6
CONTINUOUS
10
1.75535
20
-0.0346307
11
1.76285
21
-0.0365054
0
LINE
8
BLACK
6
CONTINUOUS
10
1.76285
20
-0.0365054
11
1.76331
21
-0.036713
0
LINE
8
BLACK
6
CONTINUOUS
10
1.76331
20
-0.036713
11
1.76345
21
-0.036729
0
LINE
8
BLACK
6
CONTINUOUS
10
1.76345
20
-0.036729
11
1.7672
21
-0.0386038
0
LINE
8
BLACK
6
CONTINUOUS
10
1.7672
20
-0.0386038
11
1.76791
21
-0.0391296
0
LINE
8
BLACK
6
CONTINUOUS
10
1.76791
20
-0.0391296
11
1.76797
21
-0.0391569
0
LINE
8
BLACK
6
CONTINUOUS
10
1.76797
20
-0.0391569
11
1.76984
21
-0.0410316
0
LINE
8
BLACK
6
CONTINUOUS
10
1.76984
20
-0.0410316
11
1.77035
21
-0.0417548
0
LINE
8
BLACK
6
CONTINUOUS
10
1.77035
20
-0.0417548
11
1.7704
21
-0.0417991
0
LINE
8
BLACK
6
CONTINUOUS
10
1.7704
20
-0.0417991
11
1.77227
21
-0.0455486
0
LINE
8
BLACK
6
CONTINUOUS
10
1.77227
20
-0.0455486
11
1.77256
21
-0.0465315
0
LINE
8
BLACK
6
CONTINUOUS
10
1.77256
20
-0.0465315
11
1.77252
21
-0.0467032
0
LINE
8
BLACK
6
CONTINUOUS
10
1.77252
20
-0.0467032
11
1.77258
21
-0.0468691
0
LINE
8
BLACK
6
CONTINUOUS
10
1.77258
20
-0.0468691
11
1.77258
21
-0.0506186
0
LINE
8
BLACK
6
CONTINUOUS
10
1.77258
20
-0.0506186
11
1.77241
21
-0.0516285
0
LINE
8
BLACK
6
CONTINUOUS
10
1.77241
20
-0.0516285
11
1.77229
21
-0.0517638
0
LINE
8
BLACK
6
CONTINUOUS
10
1.77229
20
-0.0517638
11
1.77227
21
-0.0519391
0
LINE
8
BLACK
6
CONTINUOUS
10
1.77227
20
-0.0519391
11
1.7704
21
-0.0556887
0
LINE
8
BLACK
6
CONTINUOUS
10
1.7704
20
-0.0556887
11
1.76987
21
-0.0563978
0
LINE
8
BLACK
6
CONTINUOUS
10
1.76987
20
-0.0563978
11
1.76984
21
-0.0564561
0
LINE
8
BLACK
6
CONTINUOUS
10
1.76984
20
-0.0564561
11
1.76797
21
-0.0583309
0
LINE
8
BLACK
6
CONTINUOUS
10
1.76797
20
-0.0583309
11
1.76725
21
-0.0588371
0
LINE
8
BLACK
6
CONTINUOUS
10
1.76725
20
-0.0588371
11
1.7672
21
-0.0588839
0
LINE
8
BLACK
6
CONTINUOUS
10
1.7672
20
-0.0588839
11
1.76345
21
-0.0607587
0
LINE
8
BLACK
6
CONTINUOUS
10
1.76345
20
-0.0607587
11
1.76296
21
-0.060904
0
LINE
8
BLACK
6
CONTINUOUS
10
1.76296
20
-0.060904
11
1.76285
21
-0.0609823
0
LINE
8
BLACK
6
CONTINUOUS
10
1.76285
20
-0.0609823
11
1.75535
21
-0.062857
0
LINE
8
BLACK
6
CONTINUOUS
10
1.75535
20
-0.062857
11
1.75476
21
-0.0628985
0
LINE
8
BLACK
6
CONTINUOUS
10
1.75476
20
-0.0628985
11
1.75463
21
-0.0629452
0
LINE
8
BLACK
6
CONTINUOUS
10
1.75463
20
-0.0629452
11
1.74526
21
-0.0629452
0
LINE
8
BLACK
6
CONTINUOUS
10
1.74526
20
-0.0629452
11
1.74468
21
-0.0628428
0
LINE
8
BLACK
6
CONTINUOUS
10
1.74468
20
-0.0628428
11
1.74454
21
-0.062857
0
LINE
8
BLACK
6
CONTINUOUS
10
1.74454
20
-0.062857
11
1.73704
21
-0.0609823
0
LINE
8
BLACK
6
CONTINUOUS
10
1.73704
20
-0.0609823
11
1.73658
21
-0.0607747
0
LINE
8
BLACK
6
CONTINUOUS
10
1.73658
20
-0.0607747
11
1.73644
21
-0.0607587
0
LINE
8
BLACK
6
CONTINUOUS
10
1.73644
20
-0.0607587
11
1.73269
21
-0.0588839
0
LINE
8
BLACK
6
CONTINUOUS
10
1.73269
20
-0.0588839
11
1.73198
21
-0.058358
0
LINE
8
BLACK
6
CONTINUOUS
10
1.73198
20
-0.058358
11
1.73192
21
-0.0583308
0
LINE
8
BLACK
6
CONTINUOUS
10
1.73192
20
-0.0583308
11
1.73005
21
-0.0564561
0
LINE
8
BLACK
6
CONTINUOUS
10
1.73005
20
-0.0564561
11
1.72954
21
-0.055733
0
LINE
8
BLACK
6
CONTINUOUS
10
1.72954
20
-0.055733
11
1.72949
21
-0.0556887
0
LINE
8
BLACK
6
CONTINUOUS
10
1.72949
20
-0.0556887
11
1.72762
21
-0.0519391
0
LINE
8
BLACK
6
CONTINUOUS
10
1.72762
20
-0.0519391
11
1.72733
21
-0.0509562
0
LINE
8
BLACK
6
CONTINUOUS
10
1.72733
20
-0.0509562
11
1.72737
21
-0.0507845
0
LINE
8
BLACK
6
CONTINUOUS
10
1.72737
20
-0.0507845
11
1.72731
21
-0.0506186
0
LINE
8
BLACK
6
CONTINUOUS
10
1.72731
20
-0.0506186
11
1.72731
21
-0.0468691
0
LINE
8
BLACK
6
CONTINUOUS
10
1.72731
20
-0.0468691
11
1.72749
21
-0.0458592
0
LINE
8
BLACK
6
CONTINUOUS
10
1.72749
20
-0.0458592
11
1.7276
21
-0.0457239
0
LINE
8
BLACK
6
CONTINUOUS
10
1.7276
20
-0.0457239
11
1.72762
21
-0.0455486
0
LINE
8
BLACK
6
CONTINUOUS
10
1.72762
20
-0.0455486
11
1.72949
21
-0.0417991
0
LINE
8
BLACK
6
CONTINUOUS
10
1.72949
20
-0.0417991
11
1.73002
21
-0.04109
0
LINE
8
BLACK
6
CONTINUOUS
10
1.73002
20
-0.04109
11
1.73005
21
-0.0410317
0
LINE
8
BLACK
6
CONTINUOUS
10
1.73005
20
-0.0410317
11
1.73192
21
-0.0391569
0
LINE
8
BLACK
6
CONTINUOUS
10
1.73192
20
-0.0391569
11
1.73265
21
-0.0386506
0
LINE
8
BLACK
6
CONTINUOUS
10
1.73265
20
-0.0386506
11
1.73269
21
-0.0386038
0
LINE
8
BLACK
6
CONTINUOUS
10
1.73269
20
-0.0386038
11
1.73644
21
-0.036729
0
LINE
8
BLACK
6
CONTINUOUS
10
1.73644
20
-0.036729
11
1.73693
21
-0.0365837
0
LINE
8
BLACK
6
CONTINUOUS
10
1.73693
20
-0.0365837
11
1.73704
21
-0.0365054
0
LINE
8
BLACK
6
CONTINUOUS
10
1.73704
20
-0.0365054
11
1.74454
21
-0.0346307
0
LINE
8
BLACK
6
CONTINUOUS
10
1.74454
20
-0.0346307
11
1.74513
21
-0.0345892
0
LINE
8
BLACK
6
CONTINUOUS
10
1.74513
20
-0.0345892
11
1.74526
21
-0.0345425
0
LINE
8
BLACK
6
CONTINUOUS
10
1.74526
20
-0.0345425
11
1.75463
21
-0.0345425
0
LINE
8
BLACK
6
CONTINUOUS
10
1.75463
20
-0.0345425
11
1.75521
21
-0.0346448
0
LINE
8
BLACK
6
CONTINUOUS
10
1.73879
20
-0.042156
11
1.73576
21
-0.0436715
0
LINE
8
BLACK
6
CONTINUOUS
10
1.73576
20
-0.0436715
11
1.73456
21
-0.0448687
0
LINE
8
BLACK
6
CONTINUOUS
10
1.73456
20
-0.0448687
11
1.73321
21
-0.0475661
0
LINE
8
BLACK
6
CONTINUOUS
10
1.73321
20
-0.0475661
11
1.73321
21
-0.0499216
0
LINE
8
BLACK
6
CONTINUOUS
10
1.73321
20
-0.0499216
11
1.73456
21
-0.0526191
0
LINE
8
BLACK
6
CONTINUOUS
10
1.73456
20
-0.0526191
11
1.73576
21
-0.0538162
0
LINE
8
BLACK
6
CONTINUOUS
10
1.73576
20
-0.0538162
11
1.73879
21
-0.0553317
0
LINE
8
BLACK
6
CONTINUOUS
10
1.73879
20
-0.0553317
11
1.74562
21
-0.0570397
0
LINE
8
BLACK
6
CONTINUOUS
10
1.74562
20
-0.0570397
11
1.75427
21
-0.0570397
0
LINE
8
BLACK
6
CONTINUOUS
10
1.75427
20
-0.0570397
11
1.7611
21
-0.0553317
0
LINE
8
BLACK
6
CONTINUOUS
10
1.7611
20
-0.0553317
11
1.76413
21
-0.0538161
0
LINE
8
BLACK
6
CONTINUOUS
10
1.76413
20
-0.0538161
11
1.76533
21
-0.052619
0
LINE
8
BLACK
6
CONTINUOUS
10
1.76533
20
-0.052619
11
1.76668
21
-0.0499216
0
LINE
8
BLACK
6
CONTINUOUS
10
1.76668
20
-0.0499216
11
1.76668
21
-0.0475661
0
LINE
8
BLACK
6
CONTINUOUS
10
1.76668
20
-0.0475661
11
1.76533
21
-0.0448687
0
LINE
8
BLACK
6
CONTINUOUS
10
1.76533
20
-0.0448687
11
1.76413
21
-0.0436715
0
LINE
8
BLACK
6
CONTINUOUS
10
1.76413
20
-0.0436715
11
1.7611
21
-0.042156
0
LINE
8
BLACK
6
CONTINUOUS
10
1.7611
20
-0.042156
11
1.75427
21
-0.040448
0
LINE
8
BLACK
6
CONTINUOUS
10
1.75427
20
-0.040448
11
1.74562
21
-0.040448
0
LINE
8
BLACK
6
CONTINUOUS
10
1.74562
20
-0.040448
11
1.73879
21
-0.042156
0
LINE
8
BLACK
6
CONTINUOUS
10
-1.77175
20
-0.0440401
11
-1.77148
21
-0.0440169
0
LINE
8
BLACK
6
CONTINUOUS
10
-1.77148
20
-0.0440169
11
-1.77085
21
-0.044457
0
LINE
8
BLACK
6
CONTINUOUS
10
-1.77085
20
-0.044457
11
-1.77016
21
-0.0447811
0
LINE
8
BLACK
6
CONTINUOUS
10
-1.77016
20
-0.0447811
11
-1.76828
21
-0.0466559
0
LINE
8
BLACK
6
CONTINUOUS
10
-1.76828
20
-0.0466559
11
-1.76806
21
-0.0469749
0
LINE
8
BLACK
6
CONTINUOUS
10
-1.76806
20
-0.0469749
11
-1.76795
21
-0.0470502
0
LINE
8
BLACK
6
CONTINUOUS
10
-1.76795
20
-0.0470502
11
-1.76792
21
-0.0471769
0
LINE
8
BLACK
6
CONTINUOUS
10
-1.76792
20
-0.0471769
11
-1.76791
21
-0.0471839
0
LINE
8
BLACK
6
CONTINUOUS
10
-1.76791
20
-0.0471839
11
-1.76781
21
-0.0472674
0
LINE
8
BLACK
6
CONTINUOUS
10
-1.76781
20
-0.0472674
11
-1.7678
21
-0.0473458
0
LINE
8
BLACK
6
CONTINUOUS
10
-1.7678
20
-0.0473458
11
-1.76769
21
-0.0474959
0
LINE
8
BLACK
6
CONTINUOUS
10
-1.76769
20
-0.0474959
11
-1.76763
21
-0.0482602
0
LINE
8
BLACK
6
CONTINUOUS
10
-1.76763
20
-0.0482602
11
-1.76743
21
-0.0490012
0
LINE
8
BLACK
6
CONTINUOUS
10
-1.76743
20
-0.0490012
11
-1.76748
21
-0.0491235
0
LINE
8
BLACK
6
CONTINUOUS
10
-1.76748
20
-0.0491235
11
-1.76746
21
-0.0492566
0
LINE
8
BLACK
6
CONTINUOUS
10
-1.76746
20
-0.0492566
11
-1.76753
21
-0.0493735
0
LINE
8
BLACK
6
CONTINUOUS
10
-1.76753
20
-0.0493735
11
-1.76752
21
-0.049508
0
LINE
8
BLACK
6
CONTINUOUS
10
-1.76752
20
-0.049508
11
-1.76796
21
-0.0501364
0
LINE
8
BLACK
6
CONTINUOUS
10
-1.76796
20
-0.0501364
11
-1.76828
21
-0.0508317
0
LINE
8
BLACK
6
CONTINUOUS
10
-1.76828
20
-0.0508317
11
-1.77016
21
-0.0527065
0
LINE
8
BLACK
6
CONTINUOUS
10
-1.77016
20
-0.0527065
11
-1.77048
21
-0.0529298
0
LINE
8
BLACK
6
CONTINUOUS
10
-1.77048
20
-0.0529298
11
-1.77055
21
-0.0530373
0
LINE
8
BLACK
6
CONTINUOUS
10
-1.77055
20
-0.0530373
11
-1.77068
21
-0.0530713
0
LINE
8
BLACK
6
CONTINUOUS
10
-1.77068
20
-0.0530713
11
-1.771
21
-0.0532947
0
LINE
8
BLACK
6
CONTINUOUS
10
-1.771
20
-0.0532947
11
-1.77176
21
-0.0533615
0
LINE
8
BLACK
6
CONTINUOUS
10
-1.77176
20
-0.0533615
11
-1.7725
21
-0.0535601
0
LINE
8
BLACK
6
CONTINUOUS
10
-1.7725
20
-0.0535601
11
-1.77274
21
-0.0534475
0
LINE
8
BLACK
6
CONTINUOUS
10
-1.77274
20
-0.0534475
11
-1.77301
21
-0.0534707
0
LINE
8
BLACK
6
CONTINUOUS
10
-1.77301
20
-0.0534707
11
-1.77364
21
-0.0530306
0
LINE
8
BLACK
6
CONTINUOUS
10
-1.77364
20
-0.0530306
11
-1.77433
21
-0.0527065
0
LINE
8
BLACK
6
CONTINUOUS
10
-1.77433
20
-0.0527065
11
-1.77621
21
-0.0508318
0
LINE
8
BLACK
6
CONTINUOUS
10
-1.77621
20
-0.0508318
11
-1.77643
21
-0.0505127
0
LINE
8
BLACK
6
CONTINUOUS
10
-1.77643
20
-0.0505127
11
-1.77654
21
-0.0504374
0
LINE
8
BLACK
6
CONTINUOUS
10
-1.77654
20
-0.0504374
11
-1.77657
21
-0.0503107
0
LINE
8
BLACK
6
CONTINUOUS
10
-1.77657
20
-0.0503107
11
-1.77658
21
-0.0503037
0
LINE
8
BLACK
6
CONTINUOUS
10
-1.77658
20
-0.0503037
11
-1.77668
21
-0.0502202
0
LINE
8
BLACK
6
CONTINUOUS
10
-1.77668
20
-0.0502202
11
-1.77669
21
-0.0501419
0
LINE
8
BLACK
6
CONTINUOUS
10
-1.77669
20
-0.0501419
11
-1.77679
21
-0.0499917
0
LINE
8
BLACK
6
CONTINUOUS
10
-1.77679
20
-0.0499917
11
-1.77686
21
-0.0492274
0
LINE
8
BLACK
6
CONTINUOUS
10
-1.77686
20
-0.0492274
11
-1.77706
21
-0.0484865
0
LINE
8
BLACK
6
CONTINUOUS
10
-1.77706
20
-0.0484865
11
-1.777
21
-0.0483641
0
LINE
8
BLACK
6
CONTINUOUS
10
-1.777
20
-0.0483641
11
-1.77703
21
-0.0482311
0
LINE
8
BLACK
6
CONTINUOUS
10
-1.77703
20
-0.0482311
11
-1.77696
21
-0.0481141
0
LINE
8
BLACK
6
CONTINUOUS
10
-1.77696
20
-0.0481141
11
-1.77697
21
-0.0479796
0
LINE
8
BLACK
6
CONTINUOUS
10
-1.77697
20
-0.0479796
11
-1.77653
21
-0.047351
0
LINE
8
BLACK
6
CONTINUOUS
10
-1.77653
20
-0.047351
11
-1.77621
21
-0.0466559
0
LINE
8
BLACK
6
CONTINUOUS
10
-1.77621
20
-0.0466559
11
-1.77433
21
-0.0447811
0
LINE
8
BLACK
6
CONTINUOUS
10
-1.77433
20
-0.0447811
11
-1.77401
21
-0.0445577
0
LINE
8
BLACK
6
CONTINUOUS
10
-1.77401
20
-0.0445577
11
-1.77394
21
-0.0444503
0
LINE
8
BLACK
6
CONTINUOUS
10
-1.77394
20
-0.0444503
11
-1.77381
21
-0.0444163
0
LINE
8
BLACK
6
CONTINUOUS
10
-1.77381
20
-0.0444163
11
-1.77349
21
-0.0441929
0
LINE
8
BLACK
6
CONTINUOUS
10
-1.77349
20
-0.0441929
11
-1.77273
21
-0.0441261
0
LINE
8
BLACK
6
CONTINUOUS
10
-1.77273
20
-0.0441261
11
-1.77199
21
-0.0439276
0
LINE
8
BLACK
6
CONTINUOUS
10
-1.77199
20
-0.0439276
11
-1.77175
21
-0.0440401
0
LINE
8
BLACK
6
CONTINUOUS
10
-1.76811
20
-0.00747579
11
-1.76742
21
-0.00937378
0
LINE
8
BLACK
6
CONTINUOUS
10
-1.76742
20
-0.00937378
11
-1.76742
21
-0.0318709
0
LINE
8
BLACK
6
CONTINUOUS
10
-1.76742
20
-0.0318709
11
-1.76759
21
-0.0328809
0
LINE
8
BLACK
6
CONTINUOUS
10
-1.76759
20
-0.0328809
11
-1.76889
21
-0.0344281
0
LINE
8
BLACK
6
CONTINUOUS
10
-1.76889
20
-0.0344281
11
-1.77088
21
-0.0347789
0
LINE
8
BLACK
6
CONTINUOUS
10
-1.77088
20
-0.0347789
11
-1.77263
21
-0.0337689
0
LINE
8
BLACK
6
CONTINUOUS
10
-1.77263
20
-0.0337689
11
-1.77332
21
-0.0318709
0
LINE
8
BLACK
6
CONTINUOUS
10
-1.77332
20
-0.0318709
11
-1.77332
21
-0.0235751
0
LINE
8
BLACK
6
CONTINUOUS
10
-1.77332
20
-0.0235751
11
-1.80074
21
-0.0235751
0
LINE
8
BLACK
6
CONTINUOUS
10
-1.80074
20
-0.0235751
11
-1.79828
21
-0.0260335
0
LINE
8
BLACK
6
CONTINUOUS
10
-1.79828
20
-0.0260335
11
-1.79777
21
-0.0267567
0
LINE
8
BLACK
6
CONTINUOUS
10
-1.79777
20
-0.0267567
11
-1.79772
21
-0.0268009
0
LINE
8
BLACK
6
CONTINUOUS
10
-1.79772
20
-0.0268009
11
-1.79585
21
-0.0305504
0
LINE
8
BLACK
6
CONTINUOUS
10
-1.79585
20
-0.0305504
11
-1.79556
21
-0.0315333
0
LINE
8
BLACK
6
CONTINUOUS
10
-1.79556
20
-0.0315333
11
-1.79603
21
-0.0334979
0
LINE
8
BLACK
6
CONTINUOUS
10
-1.79603
20
-0.0334979
11
-1.79765
21
-0.0347012
0
LINE
8
BLACK
6
CONTINUOUS
10
-1.79765
20
-0.0347012
11
-1.79967
21
-0.0345801
0
LINE
8
BLACK
6
CONTINUOUS
10
-1.79967
20
-0.0345801
11
-1.80113
21
-0.0331915
0
LINE
8
BLACK
6
CONTINUOUS
10
-1.80113
20
-0.0331915
11
-1.80279
21
-0.0298705
0
LINE
8
BLACK
6
CONTINUOUS
10
-1.80279
20
-0.0298705
11
-1.806
21
-0.0266665
0
LINE
8
BLACK
6
CONTINUOUS
10
-1.806
20
-0.0266665
11
-1.81138
21
-0.0230792
0
LINE
8
BLACK
6
CONTINUOUS
10
-1.81138
20
-0.0230792
11
-1.81212
21
-0.0223708
0
LINE
8
BLACK
6
CONTINUOUS
10
-1.81212
20
-0.0223708
11
-1.81217
21
-0.0222079
0
LINE
8
BLACK
6
CONTINUOUS
10
-1.81217
20
-0.0222079
11
-1.8123
21
-0.0220987
0
LINE
8
BLACK
6
CONTINUOUS
10
-1.8123
20
-0.0220987
11
-1.81245
21
-0.0212548
0
LINE
8
BLACK
6
CONTINUOUS
10
-1.81245
20
-0.0212548
11
-1.81269
21
-0.0204323
0
LINE
8
BLACK
6
CONTINUOUS
10
-1.81269
20
-0.0204323
11
-1.81262
21
-0.0202768
0
LINE
8
BLACK
6
CONTINUOUS
10
-1.81262
20
-0.0202768
11
-1.81265
21
-0.0201096
0
LINE
8
BLACK
6
CONTINUOUS
10
-1.81265
20
-0.0201096
11
-1.81222
21
-0.0193675
0
LINE
8
BLACK
6
CONTINUOUS
10
-1.81222
20
-0.0193675
11
-1.81187
21
-0.0185827
0
LINE
8
BLACK
6
CONTINUOUS
10
-1.81187
20
-0.0185827
11
-1.81172
21
-0.0185074
0
LINE
8
BLACK
6
CONTINUOUS
10
-1.81172
20
-0.0185074
11
-1.81164
21
-0.0183604
0
LINE
8
BLACK
6
CONTINUOUS
10
-1.81164
20
-0.0183604
11
-1.81083
21
-0.0180673
0
LINE
8
BLACK
6
CONTINUOUS
10
-1.81083
20
-0.0180673
11
-1.81006
21
-0.0176875
0
LINE
8
BLACK
6
CONTINUOUS
10
-1.81006
20
-0.0176875
11
-1.8099
21
-0.0177277
0
LINE
8
BLACK
6
CONTINUOUS
10
-1.8099
20
-0.0177277
11
-1.80974
21
-0.0176696
0
LINE
8
BLACK
6
CONTINUOUS
10
-1.80974
20
-0.0176696
11
-1.77332
21
-0.0176696
0
LINE
8
BLACK
6
CONTINUOUS
10
-1.77332
20
-0.0176696
11
-1.77332
21
-0.00937378
0
LINE
8
BLACK
6
CONTINUOUS
10
-1.77332
20
-0.00937378
11
-1.77314
21
-0.00836386
0
LINE
8
BLACK
6
CONTINUOUS
10
-1.77314
20
-0.00836386
11
-1.77185
21
-0.00681661
0
LINE
8
BLACK
6
CONTINUOUS
10
-1.77185
20
-0.00681661
11
-1.76986
21
-0.00646587
0
LINE
8
BLACK
6
CONTINUOUS
10
-1.76986
20
-0.00646587
11
-1.76811
21
-0.00747579
0
LINE
8
BLACK
6
CONTINUOUS
10
1.77064
20
0.0458944
11
1.77219
21
0.0445961
0
LINE
8
BLACK
6
CONTINUOUS
10
1.77219
20
0.0445961
11
1.77254
21
0.0426069
0
LINE
8
BLACK
6
CONTINUOUS
10
1.77254
20
0.0426069
11
1.77153
21
0.0408578
0
LINE
8
BLACK
6
CONTINUOUS
10
1.77153
20
0.0408578
11
1.76963
21
0.0401669
0
LINE
8
BLACK
6
CONTINUOUS
10
1.76963
20
0.0401669
11
1.74971
21
0.0401669
0
LINE
8
BLACK
6
CONTINUOUS
10
1.74971
20
0.0401669
11
1.74746
21
0.0390441
0
LINE
8
BLACK
6
CONTINUOUS
10
1.74746
20
0.0390441
11
1.74634
21
0.0367983
0
LINE
8
BLACK
6
CONTINUOUS
10
1.74634
20
0.0367983
11
1.74634
21
0.0325681
0
LINE
8
BLACK
6
CONTINUOUS
10
1.74634
20
0.0325681
11
1.74746
21
0.0303224
0
LINE
8
BLACK
6
CONTINUOUS
10
1.74746
20
0.0303224
11
1.74971
21
0.0291995
0
LINE
8
BLACK
6
CONTINUOUS
10
1.74971
20
0.0291995
11
1.76963
21
0.0291995
0
LINE
8
BLACK
6
CONTINUOUS
10
1.76963
20
0.0291995
11
1.77064
21
0.0290215
0
LINE
8
BLACK
6
CONTINUOUS
10
1.77064
20
0.0290215
11
1.77219
21
0.0277231
0
LINE
8
BLACK
6
CONTINUOUS
10
1.77219
20
0.0277231
11
1.77254
21
0.025734
0
LINE
8
BLACK
6
CONTINUOUS
10
1.77254
20
0.025734
11
1.77153
21
0.0239848
0
LINE
8
BLACK
6
CONTINUOUS
10
1.77153
20
0.0239848
11
1.76963
21
0.023294
0
LINE
8
BLACK
6
CONTINUOUS
10
1.76963
20
0.023294
11
1.74971
21
0.023294
0
LINE
8
BLACK
6
CONTINUOUS
10
1.74971
20
0.023294
11
1.74746
21
0.0221712
0
LINE
8
BLACK
6
CONTINUOUS
10
1.74746
20
0.0221712
11
1.74634
21
0.0199254
0
LINE
8
BLACK
6
CONTINUOUS
10
1.74634
20
0.0199254
11
1.74634
21
0.0156952
0
LINE
8
BLACK
6
CONTINUOUS
10
1.74634
20
0.0156952
11
1.74769
21
0.0129978
0
LINE
8
BLACK
6
CONTINUOUS
10
1.74769
20
0.0129978
11
1.74836
21
0.0123267
0
LINE
8
BLACK
6
CONTINUOUS
10
1.74836
20
0.0123267
11
1.76963
21
0.0123267
0
LINE
8
BLACK
6
CONTINUOUS
10
1.76963
20
0.0123267
11
1.77064
21
0.0121486
0
LINE
8
BLACK
6
CONTINUOUS
10
1.77064
20
0.0121486
11
1.77219
21
0.0108503
0
LINE
8
BLACK
6
CONTINUOUS
10
1.77219
20
0.0108503
11
1.77254
21
0.00886114
0
LINE
8
BLACK
6
CONTINUOUS
10
1.77254
20
0.00886114
11
1.77153
21
0.00711197
0
LINE
8
BLACK
6
CONTINUOUS
10
1.77153
20
0.00711197
11
1.76963
21
0.00642114
0
LINE
8
BLACK
6
CONTINUOUS
10
1.76963
20
0.00642114
11
1.74338
21
0.00642114
0
LINE
8
BLACK
6
CONTINUOUS
10
1.74338
20
0.00642114
11
1.74237
21
0.00659921
0
LINE
8
BLACK
6
CONTINUOUS
10
1.74237
20
0.00659921
11
1.74083
21
0.00789752
0
LINE
8
BLACK
6
CONTINUOUS
10
1.74083
20
0.00789752
11
1.74048
21
0.00988665
0
LINE
8
BLACK
6
CONTINUOUS
10
1.74048
20
0.00988665
11
1.74149
21
0.0116358
0
LINE
8
BLACK
6
CONTINUOUS
10
1.74149
20
0.0116358
11
1.74172
21
0.0117214
0
LINE
8
BLACK
6
CONTINUOUS
10
1.74172
20
0.0117214
11
1.74074
21
0.0136777
0
LINE
8
BLACK
6
CONTINUOUS
10
1.74074
20
0.0136777
11
1.74045
21
0.0146606
0
LINE
8
BLACK
6
CONTINUOUS
10
1.74045
20
0.0146606
11
1.74049
21
0.0148323
0
LINE
8
BLACK
6
CONTINUOUS
10
1.74049
20
0.0148323
11
1.74043
21
0.0149982
0
LINE
8
BLACK
6
CONTINUOUS
10
1.74043
20
0.0149982
11
1.74043
21
0.0206225
0
LINE
8
BLACK
6
CONTINUOUS
10
1.74043
20
0.0206225
11
1.74061
21
0.0216324
0
LINE
8
BLACK
6
CONTINUOUS
10
1.74061
20
0.0216324
11
1.74072
21
0.0217677
0
LINE
8
BLACK
6
CONTINUOUS
10
1.74072
20
0.0217677
11
1.74074
21
0.021943
0
LINE
8
BLACK
6
CONTINUOUS
10
1.74074
20
0.021943
11
1.74262
21
0.0256925
0
LINE
8
BLACK
6
CONTINUOUS
10
1.74262
20
0.0256925
11
1.74304
21
0.0262625
0
LINE
8
BLACK
6
CONTINUOUS
10
1.74304
20
0.0262625
11
1.74294
21
0.0264971
0
LINE
8
BLACK
6
CONTINUOUS
10
1.74294
20
0.0264971
11
1.74262
21
0.026801
0
LINE
8
BLACK
6
CONTINUOUS
10
1.74262
20
0.026801
11
1.74074
21
0.0305506
0
LINE
8
BLACK
6
CONTINUOUS
10
1.74074
20
0.0305506
11
1.74045
21
0.0315335
0
LINE
8
BLACK
6
CONTINUOUS
10
1.74045
20
0.0315335
11
1.74049
21
0.0317052
0
LINE
8
BLACK
6
CONTINUOUS
10
1.74049
20
0.0317052
11
1.74043
21
0.0318711
0
LINE
8
BLACK
6
CONTINUOUS
10
1.74043
20
0.0318711
11
1.74043
21
0.0374954
0
LINE
8
BLACK
6
CONTINUOUS
10
1.74043
20
0.0374954
11
1.74061
21
0.0385053
0
LINE
8
BLACK
6
CONTINUOUS
10
1.74061
20
0.0385053
11
1.74072
21
0.0386406
0
LINE
8
BLACK
6
CONTINUOUS
10
1.74072
20
0.0386406
11
1.74074
21
0.0388159
0
LINE
8
BLACK
6
CONTINUOUS
10
1.74074
20
0.0388159
11
1.74262
21
0.0425654
0
LINE
8
BLACK
6
CONTINUOUS
10
1.74262
20
0.0425654
11
1.74323
21
0.0433891
0
LINE
8
BLACK
6
CONTINUOUS
10
1.74323
20
0.0433891
11
1.74363
21
0.043565
0
LINE
8
BLACK
6
CONTINUOUS
10
1.74363
20
0.043565
11
1.74394
21
0.0438859
0
LINE
8
BLACK
6
CONTINUOUS
10
1.74394
20
0.0438859
11
1.74769
21
0.0457607
0
LINE
8
BLACK
6
CONTINUOUS
10
1.74769
20
0.0457607
11
1.74867
21
0.0460531
0
LINE
8
BLACK
6
CONTINUOUS
10
1.74867
20
0.0460531
11
1.74884
21
0.0460121
0
LINE
8
BLACK
6
CONTINUOUS
10
1.74884
20
0.0460121
11
1.74901
21
0.0460724
0
LINE
8
BLACK
6
CONTINUOUS
10
1.74901
20
0.0460724
11
1.76963
21
0.0460724
0
LINE
8
BLACK
6
CONTINUOUS
10
1.76963
20
0.0460724
11
1.77064
21
0.0458944
0
LINE
8
BLACK
6
CONTINUOUS
10
-1.76936
20
0.0740159
11
-1.76781
21
0.0727176
0
LINE
8
BLACK
6
CONTINUOUS
10
-1.76781
20
0.0727176
11
-1.76746
21
0.0707284
0
LINE
8
BLACK
6
CONTINUOUS
10
-1.76746
20
0.0707284
11
-1.76847
21
0.0689793
0
LINE
8
BLACK
6
CONTINUOUS
10
-1.76847
20
0.0689793
11
-1.77037
21
0.0682884
0
LINE
8
BLACK
6
CONTINUOUS
10
-1.77037
20
0.0682884
11
-1.79029
21
0.0682884
0
LINE
8
BLACK
6
CONTINUOUS
10
-1.79029
20
0.0682884
11
-1.79254
21
0.0671656
0
LINE
8
BLACK
6
CONTINUOUS
10
-1.79254
20
0.0671656
11
-1.79366
21
0.0649198
0
LINE
8
BLACK
6
CONTINUOUS
10
-1.79366
20
0.0649198
11
-1.79366
21
0.0606896
0
LINE
8
BLACK
6
CONTINUOUS
10
-1.79366
20
0.0606896
11
-1.79254
21
0.0584439
0
LINE
8
BLACK
6
CONTINUOUS
10
-1.79254
20
0.0584439
11
-1.79029
21
0.057321
0
LINE
8
BLACK
6
CONTINUOUS
10
-1.79029
20
0.057321
11
-1.77037
21
0.057321
0
LINE
8
BLACK
6
CONTINUOUS
10
-1.77037
20
0.057321
11
-1.76936
21
0.057143
0
LINE
8
BLACK
6
CONTINUOUS
10
-1.76936
20
0.057143
11
-1.76781
21
0.0558446
0
LINE
8
BLACK
6
CONTINUOUS
10
-1.76781
20
0.0558446
11
-1.76746
21
0.0538555
0
LINE
8
BLACK
6
CONTINUOUS
10
-1.76746
20
0.0538555
11
-1.76847
21
0.0521063
0
LINE
8
BLACK
6
CONTINUOUS
10
-1.76847
20
0.0521063
11
-1.77037
21
0.0514155
0
LINE
8
BLACK
6
CONTINUOUS
10
-1.77037
20
0.0514155
11
-1.79029
21
0.0514155
0
LINE
8
BLACK
6
CONTINUOUS
10
-1.79029
20
0.0514155
11
-1.79254
21
0.0502927
0
LINE
8
BLACK
6
CONTINUOUS
10
-1.79254
20
0.0502927
11
-1.79366
21
0.0480469
0
LINE
8
BLACK
6
CONTINUOUS
10
-1.79366
20
0.0480469
11
-1.79366
21
0.0438167
0
LINE
8
BLACK
6
CONTINUOUS
10
-1.79366
20
0.0438167
11
-1.79231
21
0.0411193
0
LINE
8
BLACK
6
CONTINUOUS
10
-1.79231
20
0.0411193
11
-1.79164
21
0.0404481
0
LINE
8
BLACK
6
CONTINUOUS
10
-1.79164
20
0.0404481
11
-1.77037
21
0.0404481
0
LINE
8
BLACK
6
CONTINUOUS
10
-1.77037
20
0.0404481
11
-1.76936
21
0.0402701
0
LINE
8
BLACK
6
CONTINUOUS
10
-1.76936
20
0.0402701
11
-1.76781
21
0.0389718
0
LINE
8
BLACK
6
CONTINUOUS
10
-1.76781
20
0.0389718
11
-1.76746
21
0.0369826
0
LINE
8
BLACK
6
CONTINUOUS
10
-1.76746
20
0.0369826
11
-1.76847
21
0.0352335
0
LINE
8
BLACK
6
CONTINUOUS
10
-1.76847
20
0.0352335
11
-1.77037
21
0.0345426
0
LINE
8
BLACK
6
CONTINUOUS
10
-1.77037
20
0.0345426
11
-1.79662
21
0.0345426
0
LINE
8
BLACK
6
CONTINUOUS
10
-1.79662
20
0.0345426
11
-1.79763
21
0.0347207
0
LINE
8
BLACK
6
CONTINUOUS
10
-1.79763
20
0.0347207
11
-1.79917
21
0.036019
0
LINE
8
BLACK
6
CONTINUOUS
10
-1.79917
20
0.036019
11
-1.79952
21
0.0380081
0
LINE
8
BLACK
6
CONTINUOUS
10
-1.79952
20
0.0380081
11
-1.79851
21
0.0397573
0
LINE
8
BLACK
6
CONTINUOUS
10
-1.79851
20
0.0397573
11
-1.79828
21
0.0398429
0
LINE
8
BLACK
6
CONTINUOUS
10
-1.79828
20
0.0398429
11
-1.79926
21
0.0417992
0
LINE
8
BLACK
6
CONTINUOUS
10
-1.79926
20
0.0417992
11
-1.79955
21
0.0427821
0
LINE
8
BLACK
6
CONTINUOUS
10
-1.79955
20
0.0427821
11
-1.79951
21
0.0429538
0
LINE
8
BLACK
6
CONTINUOUS
10
-1.79951
20
0.0429538
11
-1.79957
21
0.0431197
0
LINE
8
BLACK
6
CONTINUOUS
10
-1.79957
20
0.0431197
11
-1.79957
21
0.048744
0
LINE
8
BLACK
6
CONTINUOUS
10
-1.79957
20
0.048744
11
-1.79939
21
0.0497539
0
LINE
8
BLACK
6
CONTINUOUS
10
-1.79939
20
0.0497539
11
-1.79928
21
0.0498892
0
LINE
8
BLACK
6
CONTINUOUS
10
-1.79928
20
0.0498892
11
-1.79926
21
0.0500645
0
LINE
8
BLACK
6
CONTINUOUS
10
-1.79926
20
0.0500645
11
-1.79738
21
0.053814
0
LINE
8
BLACK
6
CONTINUOUS
10
-1.79738
20
0.053814
11
-1.79696
21
0.054384
0
LINE
8
BLACK
6
CONTINUOUS
10
-1.79696
20
0.054384
11
-1.79706
21
0.0546186
0
LINE
8
BLACK
6
CONTINUOUS
10
-1.79706
20
0.0546186
11
-1.79738
21
0.0549225
0
LINE
8
BLACK
6
CONTINUOUS
10
-1.79738
20
0.0549225
11
-1.79926
21
0.058672
0
LINE
8
BLACK
6
CONTINUOUS
10
-1.79926
20
0.058672
11
-1.79955
21
0.059655
0
LINE
8
BLACK
6
CONTINUOUS
10
-1.79955
20
0.059655
11
-1.79951
21
0.0598267
0
LINE
8
BLACK
6
CONTINUOUS
10
-1.79951
20
0.0598267
11
-1.79957
21
0.0599926
0
LINE
8
BLACK
6
CONTINUOUS
10
-1.79957
20
0.0599926
11
-1.79957
21
0.0656169
0
LINE
8
BLACK
6
CONTINUOUS
10
-1.79957
20
0.0656169
11
-1.79939
21
0.0666268
0
LINE
8
BLACK
6
CONTINUOUS
10
-1.79939
20
0.0666268
11
-1.79928
21
0.066762
0
LINE
8
BLACK
6
CONTINUOUS
10
-1.79928
20
0.066762
11
-1.79926
21
0.0669374
0
LINE
8
BLACK
6
CONTINUOUS
10
-1.79926
20
0.0669374
11
-1.79738
21
0.0706869
0
LINE
8
BLACK
6
CONTINUOUS
10
-1.79738
20
0.0706869
11
-1.79677
21
0.0715106
0
LINE
8
BLACK
6
CONTINUOUS
10
-1.79677
20
0.0715106
11
-1.79637
21
0.0716865
0
LINE
8
BLACK
6
CONTINUOUS
10
-1.79637
20
0.0716865
11
-1.79606
21
0.0720074
0
LINE
8
BLACK
6
CONTINUOUS
10
-1.79606
20
0.0720074
11
-1.79231
21
0.0738822
0
LINE
8
BLACK
6
CONTINUOUS
10
-1.79231
20
0.0738822
11
-1.79133
21
0.0741746
0
LINE
8
BLACK
6
CONTINUOUS
10
-1.79133
20
0.0741746
11
-1.79116
21
0.0741336
0
LINE
8
BLACK
6
CONTINUOUS
10
-1.79116
20
0.0741336
11
-1.79099
21
0.0741939
0
LINE
8
BLACK
6
CONTINUOUS
10
-1.79099
20
0.0741939
11
-1.77037
21
0.0741939
0
LINE
8
BLACK
6
CONTINUOUS
10
-1.77037
20
0.0741939
11
-1.76936
21
0.0740159
0
LINE
8
BLACK
6
CONTINUOUS
10
1.77064
20
0.0983878
11
1.77219
21
0.0970895
0
LINE
8
BLACK
6
CONTINUOUS
10
1.77219
20
0.0970895
11
1.77254
21
0.0951004
0
LINE
8
BLACK
6
CONTINUOUS
10
1.77254
20
0.0951004
11
1.77153
21
0.0933512
0
LINE
8
BLACK
6
CONTINUOUS
10
1.77153
20
0.0933512
11
1.76963
21
0.0926604
0
LINE
8
BLACK
6
CONTINUOUS
10
1.76963
20
0.0926604
11
1.74971
21
0.0926604
0
LINE
8
BLACK
6
CONTINUOUS
10
1.74971
20
0.0926604
11
1.74746
21
0.0915375
0
LINE
8
BLACK
6
CONTINUOUS
10
1.74746
20
0.0915375
11
1.74634
21
0.0892918
0
LINE
8
BLACK
6
CONTINUOUS
10
1.74634
20
0.0892918
11
1.74634
21
0.0850615
0
LINE
8
BLACK
6
CONTINUOUS
10
1.74634
20
0.0850615
11
1.74746
21
0.0828158
0
LINE
8
BLACK
6
CONTINUOUS
10
1.74746
20
0.0828158
11
1.74971
21
0.081693
0
LINE
8
BLACK
6
CONTINUOUS
10
1.74971
20
0.081693
11
1.76963
21
0.081693
0
LINE
8
BLACK
6
CONTINUOUS
10
1.76963
20
0.081693
11
1.77064
21
0.0815149
0
LINE
8
BLACK
6
CONTINUOUS
10
1.77064
20
0.0815149
11
1.77219
21
0.0802166
0
LINE
8
BLACK
6
CONTINUOUS
10
1.77219
20
0.0802166
11
1.77254
21
0.0782274
0
LINE
8
BLACK
6
CONTINUOUS
10
1.77254
20
0.0782274
11
1.77153
21
0.0764783
0
LINE
8
BLACK
6
CONTINUOUS
10
1.77153
20
0.0764783
11
1.76963
21
0.0757874
0
LINE
8
BLACK
6
CONTINUOUS
10
1.76963
20
0.0757874
11
1.74971
21
0.0757874
0
LINE
8
BLACK
6
CONTINUOUS
10
1.74971
20
0.0757874
11
1.74746
21
0.0746646
0
LINE
8
BLACK
6
CONTINUOUS
10
1.74746
20
0.0746646
11
1.74634
21
0.0724189
0
LINE
8
BLACK
6
CONTINUOUS
10
1.74634
20
0.0724189
11
1.74634
21
0.0681887
0
LINE
8
BLACK
6
CONTINUOUS
10
1.74634
20
0.0681887
11
1.74769
21
0.0654912
0
LINE
8
BLACK
6
CONTINUOUS
10
1.74769
20
0.0654912
11
1.74836
21
0.0648201
0
LINE
8
BLACK
6
CONTINUOUS
10
1.74836
20
0.0648201
11
1.76963
21
0.0648201
0
LINE
8
BLACK
6
CONTINUOUS
10
1.76963
20
0.0648201
11
1.77064
21
0.064642
0
LINE
8
BLACK
6
CONTINUOUS
10
1.77064
20
0.064642
11
1.77219
21
0.0633437
0
LINE
8
BLACK
6
CONTINUOUS
10
1.77219
20
0.0633437
11
1.77254
21
0.0613546
0
LINE
8
BLACK
6
CONTINUOUS
10
1.77254
20
0.0613546
11
1.77153
21
0.0596054
0
LINE
8
BLACK
6
CONTINUOUS
10
1.77153
20
0.0596054
11
1.76963
21
0.0589146
0
LINE
8
BLACK
6
CONTINUOUS
10
1.76963
20
0.0589146
11
1.74338
21
0.0589146
0
LINE
8
BLACK
6
CONTINUOUS
10
1.74338
20
0.0589146
11
1.74237
21
0.0590926
0
LINE
8
BLACK
6
CONTINUOUS
10
1.74237
20
0.0590926
11
1.74083
21
0.0603909
0
LINE
8
BLACK
6
CONTINUOUS
10
1.74083
20
0.0603909
11
1.74048
21
0.0623801
0
LINE
8
BLACK
6
CONTINUOUS
10
1.74048
20
0.0623801
11
1.74149
21
0.0641293
0
LINE
8
BLACK
6
CONTINUOUS
10
1.74149
20
0.0641293
11
1.74172
21
0.0642148
0
LINE
8
BLACK
6
CONTINUOUS
10
1.74172
20
0.0642148
11
1.74074
21
0.0661711
0
LINE
8
BLACK
6
CONTINUOUS
10
1.74074
20
0.0661711
11
1.74045
21
0.0671541
0
LINE
8
BLACK
6
CONTINUOUS
10
1.74045
20
0.0671541
11
1.74049
21
0.0673257
0
LINE
8
BLACK
6
CONTINUOUS
10
1.74049
20
0.0673257
11
1.74043
21
0.0674916
0
LINE
8
BLACK
6
CONTINUOUS
10
1.74043
20
0.0674916
11
1.74043
21
0.0731159
0
LINE
8
BLACK
6
CONTINUOUS
10
1.74043
20
0.0731159
11
1.74061
21
0.0741258
0
LINE
8
BLACK
6
CONTINUOUS
10
1.74061
20
0.0741258
11
1.74072
21
0.0742611
0
LINE
8
BLACK
6
CONTINUOUS
10
1.74072
20
0.0742611
11
1.74074
21
0.0744364
0
LINE
8
BLACK
6
CONTINUOUS
10
1.74074
20
0.0744364
11
1.74262
21
0.0781859
0
LINE
8
BLACK
6
CONTINUOUS
10
1.74262
20
0.0781859
11
1.74304
21
0.0787559
0
LINE
8
BLACK
6
CONTINUOUS
10
1.74304
20
0.0787559
11
1.74294
21
0.0789906
0
LINE
8
BLACK
6
CONTINUOUS
10
1.74294
20
0.0789906
11
1.74262
21
0.0792944
0
LINE
8
BLACK
6
CONTINUOUS
10
1.74262
20
0.0792944
11
1.74074
21
0.083044
0
LINE
8
BLACK
6
CONTINUOUS
10
1.74074
20
0.083044
11
1.74045
21
0.0840269
0
LINE
8
BLACK
6
CONTINUOUS
10
1.74045
20
0.0840269
11
1.74049
21
0.0841986
0
LINE
8
BLACK
6
CONTINUOUS
10
1.74049
20
0.0841986
11
1.74043
21
0.0843645
0
LINE
8
BLACK
6
CONTINUOUS
10
1.74043
20
0.0843645
11
1.74043
21
0.0899888
0
LINE
8
BLACK
6
CONTINUOUS
10
1.74043
20
0.0899888
11
1.74061
21
0.0909987
0
LINE
8
BLACK
6
CONTINUOUS
10
1.74061
20
0.0909987
11
1.74072
21
0.091134
0
LINE
8
BLACK
6
CONTINUOUS
10
1.74072
20
0.091134
11
1.74074
21
0.0913093
0
LINE
8
BLACK
6
CONTINUOUS
10
1.74074
20
0.0913093
11
1.74262
21
0.0950589
0
LINE
8
BLACK
6
CONTINUOUS
10
1.74262
20
0.0950589
11
1.74323
21
0.0958825
0
LINE
8
BLACK
6
CONTINUOUS
10
1.74323
20
0.0958825
11
1.74363
21
0.0960584
0
LINE
8
BLACK
6
CONTINUOUS
10
1.74363
20
0.0960584
11
1.74394
21
0.0963794
0
LINE
8
BLACK
6
CONTINUOUS
10
1.74394
20
0.0963794
11
1.74769
21
0.0982541
0
LINE
8
BLACK
6
CONTINUOUS
10
1.74769
20
0.0982541
11
1.74867
21
0.0985465
0
LINE
8
BLACK
6
CONTINUOUS
10
1.74867
20
0.0985465
11
1.74884
21
0.0985055
0
LINE
8
BLACK
6
CONTINUOUS
10
1.74884
20
0.0985055
11
1.74901
21
0.0985659
0
LINE
8
BLACK
6
CONTINUOUS
10
1.74901
20
0.0985659
11
1.76963
21
0.0985659
0
LINE
8
BLACK
6
CONTINUOUS
10
1.76963
20
0.0985659
11
1.77064
21
0.0983878
0
LINE
8
BLACK
6
CONTINUOUS
10
-1.76936
20
0.126509
11
-1.76781
21
0.125211
0
LINE
8
BLACK
6
CONTINUOUS
10
-1.76781
20
0.125211
11
-1.76746
21
0.123222
0
LINE
8
BLACK
6
CONTINUOUS
10
-1.76746
20
0.123222
11
-1.76847
21
0.121473
0
LINE
8
BLACK
6
CONTINUOUS
10
-1.76847
20
0.121473
11
-1.77037
21
0.120782
0
LINE
8
BLACK
6
CONTINUOUS
10
-1.77037
20
0.120782
11
-1.79029
21
0.120782
0
LINE
8
BLACK
6
CONTINUOUS
10
-1.79029
20
0.120782
11
-1.79254
21
0.119659
0
LINE
8
BLACK
6
CONTINUOUS
10
-1.79254
20
0.119659
11
-1.79366
21
0.117413
0
LINE
8
BLACK
6
CONTINUOUS
10
-1.79366
20
0.117413
11
-1.79366
21
0.113183
0
LINE
8
BLACK
6
CONTINUOUS
10
-1.79366
20
0.113183
11
-1.79254
21
0.110937
0
LINE
8
BLACK
6
CONTINUOUS
10
-1.79254
20
0.110937
11
-1.79029
21
0.109814
0
LINE
8
BLACK
6
CONTINUOUS
10
-1.79029
20
0.109814
11
-1.77037
21
0.109814
0
LINE
8
BLACK
6
CONTINUOUS
10
-1.77037
20
0.109814
11
-1.76936
21
0.109636
0
LINE
8
BLACK
6
CONTINUOUS
10
-1.76936
20
0.109636
11
-1.76781
21
0.108338
0
LINE
8
BLACK
6
CONTINUOUS
10
-1.76781
20
0.108338
11
-1.76746
21
0.106349
0
LINE
8
BLACK
6
CONTINUOUS
10
-1.76746
20
0.106349
11
-1.76847
21
0.1046
0
LINE
8
BLACK
6
CONTINUOUS
10
-1.76847
20
0.1046
11
-1.77037
21
0.103909
0
LINE
8
BLACK
6
CONTINUOUS
10
-1.77037
20
0.103909
11
-1.79029
21
0.103909
0
LINE
8
BLACK
6
CONTINUOUS
10
-1.79029
20
0.103909
11
-1.79254
21
0.102786
0
LINE
8
BLACK
6
CONTINUOUS
10
-1.79254
20
0.102786
11
-1.79366
21
0.10054
0
LINE
8
BLACK
6
CONTINUOUS
10
-1.79366
20
0.10054
11
-1.79366
21
0.0963102
0
LINE
8
BLACK
6
CONTINUOUS
10
-1.79366
20
0.0963102
11
-1.79231
21
0.0936127
0
LINE
8
BLACK
6
CONTINUOUS
10
-1.79231
20
0.0936127
11
-1.79164
21
0.0929416
0
LINE
8
BLACK
6
CONTINUOUS
10
-1.79164
20
0.0929416
11
-1.77037
21
0.0929416
0
LINE
8
BLACK
6
CONTINUOUS
10
-1.77037
20
0.0929416
11
-1.76936
21
0.0927635
0
LINE
8
BLACK
6
CONTINUOUS
10
-1.76936
20
0.0927635
11
-1.76781
21
0.0914652
0
LINE
8
BLACK
6
CONTINUOUS
10
-1.76781
20
0.0914652
11
-1.76746
21
0.0894761
0
LINE
8
BLACK
6
CONTINUOUS
10
-1.76746
20
0.0894761
11
-1.76847
21
0.0877269
0
LINE
8
BLACK
6
CONTINUOUS
10
-1.76847
20
0.0877269
11
-1.77037
21
0.0870361
0
LINE
8
BLACK
6
CONTINUOUS
10
-1.77037
20
0.0870361
11
-1.79662
21
0.0870361
0
LINE
8
BLACK
6
CONTINUOUS
10
-1.79662
20
0.0870361
11
-1.79763
21
0.0872141
0
LINE
8
BLACK
6
CONTINUOUS
10
-1.79763
20
0.0872141
11
-1.79917
21
0.0885124
0
LINE
8
BLACK
6
CONTINUOUS
10
-1.79917
20
0.0885124
11
-1.79952
21
0.0905016
0
LINE
8
BLACK
6
CONTINUOUS
10
-1.79952
20
0.0905016
11
-1.79851
21
0.0922507
0
LINE
8
BLACK
6
CONTINUOUS
10
-1.79851
20
0.0922507
11
-1.79828
21
0.0923363
0
LINE
8
BLACK
6
CONTINUOUS
10
-1.79828
20
0.0923363
11
-1.79926
21
0.0942926
0
LINE
8
BLACK
6
CONTINUOUS
10
-1.79926
20
0.0942926
11
-1.79955
21
0.0952756
0
LINE
8
BLACK
6
CONTINUOUS
10
-1.79955
20
0.0952756
11
-1.79951
21
0.0954472
0
LINE
8
BLACK
6
CONTINUOUS
10
-1.79951
20
0.0954472
11
-1.79957
21
0.0956131
0
LINE
8
BLACK
6
CONTINUOUS
10
-1.79957
20
0.0956131
11
-1.79957
21
0.101237
0
LINE
8
BLACK
6
CONTINUOUS
10
-1.79957
20
0.101237
11
-1.79939
21
0.102247
0
LINE
8
BLACK
6
CONTINUOUS
10
-1.79939
20
0.102247
11
-1.79928
21
0.102383
0
LINE
8
BLACK
6
CONTINUOUS
10
-1.79928
20
0.102383
11
-1.79926
21
0.102558
0
LINE
8
BLACK
6
CONTINUOUS
10
-1.79926
20
0.102558
11
-1.79738
21
0.106307
0
LINE
8
BLACK
6
CONTINUOUS
10
-1.79738
20
0.106307
11
-1.79696
21
0.106877
0
LINE
8
BLACK
6
CONTINUOUS
10
-1.79696
20
0.106877
11
-1.79706
21
0.107112
0
LINE
8
BLACK
6
CONTINUOUS
10
-1.79706
20
0.107112
11
-1.79738
21
0.107416
0
LINE
8
BLACK
6
CONTINUOUS
10
-1.79738
20
0.107416
11
-1.79926
21
0.111165
0
LINE
8
BLACK
6
CONTINUOUS
10
-1.79926
20
0.111165
11
-1.79955
21
0.112148
0
LINE
8
BLACK
6
CONTINUOUS
10
-1.79955
20
0.112148
11
-1.79951
21
0.11232
0
LINE
8
BLACK
6
CONTINUOUS
10
-1.79951
20
0.11232
11
-1.79957
21
0.112486
0
LINE
8
BLACK
6
CONTINUOUS
10
-1.79957
20
0.112486
11
-1.79957
21
0.11811
0
LINE
8
BLACK
6
CONTINUOUS
10
-1.79957
20
0.11811
11
-1.79939
21
0.11912
0
LINE
8
BLACK
6
CONTINUOUS
10
-1.79939
20
0.11912
11
-1.79928
21
0.119255
0
LINE
8
BLACK
6
CONTINUOUS
10
-1.79928
20
0.119255
11
-1.79926
21
0.119431
0
LINE
8
BLACK
6
CONTINUOUS
10
-1.79926
20
0.119431
11
-1.79738
21
0.12318
0
LINE
8
BLACK
6
CONTINUOUS
10
-1.79738
20
0.12318
11
-1.79677
21
0.124004
0
LINE
8
BLACK
6
CONTINUOUS
10
-1.79677
20
0.124004
11
-1.79637
21
0.12418
0
LINE
8
BLACK
6
CONTINUOUS
10
-1.79637
20
0.12418
11
-1.79606
21
0.124501
0
LINE
8
BLACK
6
CONTINUOUS
10
-1.79606
20
0.124501
11
-1.79231
21
0.126376
0
LINE
8
BLACK
6
CONTINUOUS
10
-1.79231
20
0.126376
11
-1.79133
21
0.126668
0
LINE
8
BLACK
6
CONTINUOUS
10
-1.79133
20
0.126668
11
-1.79116
21
0.126627
0
LINE
8
BLACK
6
CONTINUOUS
10
-1.79116
20
0.126627
11
-1.79099
21
0.126687
0
LINE
8
BLACK
6
CONTINUOUS
10
-1.79099
20
0.126687
11
-1.77037
21
0.126687
0
LINE
8
BLACK
6
CONTINUOUS
10
-1.77037
20
0.126687
11
-1.76936
21
0.126509
  0
ENDSEC
  0
EOF
